<?xml version="1.0" encoding="UTF-8" standalone="no"?>
<!-- Created with Inkscape (http://www.inkscape.org/) -->

<svg
   version="1.1"
   id="svg824"
   width="199.62048"
   height="25.369299"
   viewBox="0 0 199.62048 25.369299"
   sodipodi:docname="title_5.svg"
   inkscape:version="1.2.1 (9c6d41e410, 2022-07-14)"
   xmlns:inkscape="http://www.inkscape.org/namespaces/inkscape"
   xmlns:sodipodi="http://sodipodi.sourceforge.net/DTD/sodipodi-0.dtd"
   xmlns="http://www.w3.org/2000/svg"
   xmlns:svg="http://www.w3.org/2000/svg">
  <defs
     id="defs828" />
  <sodipodi:namedview
     id="namedview826"
     pagecolor="#ff00ff"
     bordercolor="#666666"
     borderopacity="1.0"
     inkscape:pageshadow="2"
     inkscape:pageopacity="0"
     inkscape:pagecheckerboard="false"
     showgrid="true"
     inkscape:zoom="5.1200001"
     inkscape:cx="91.015623"
     inkscape:cy="-20.605468"
     inkscape:window-width="1920"
     inkscape:window-height="991"
     inkscape:window-x="-9"
     inkscape:window-y="-9"
     inkscape:window-maximized="1"
     inkscape:current-layer="g830"
     fit-margin-top="0"
     fit-margin-left="0"
     fit-margin-right="0"
     fit-margin-bottom="0"
     inkscape:showpageshadow="2"
     inkscape:deskcolor="#d1d1d1" />
  <g
     inkscape:groupmode="layer"
     inkscape:label="Image"
     id="g830"
     transform="translate(-3098.5313,-414.63294)">
    <g
       id="g1141"
       transform="matrix(0.99954299,-0.05233596,0.03490614,0.99862953,-13.47534,166.84933)">
      <path
         style="fill:#000000;stroke:#ffffff;stroke-width:2.37049;stroke-miterlimit:4;stroke-dasharray:none;stroke-opacity:1;paint-order:stroke fill markers"
         d="m 3193.9047,436.70795 c -0.1054,-0.0434 -0.1591,-0.1253 -0.4864,-0.74241 -0.3192,-0.60166 -0.5859,-1.0572 -0.8352,-1.42643 -0.075,-0.11069 -0.2414,-0.41749 -0.3703,-0.68178 -0.129,-0.26428 -0.3546,-0.67619 -0.5014,-0.91535 -0.1468,-0.23916 -0.4274,-0.72872 -0.6236,-1.0879 -0.1961,-0.35918 -0.4244,-0.76258 -0.5072,-0.89643 -0.083,-0.13386 -0.2748,-0.484 -0.4266,-0.7781 -0.1518,-0.29409 -0.3607,-0.66918 -0.4641,-0.83352 -0.1861,-0.29553 -0.2902,-0.47772 -0.6173,-1.08004 -0.092,-0.17018 -0.247,-0.39665 -0.3434,-0.50326 -0.097,-0.10662 -0.2335,-0.28054 -0.3045,-0.38649 -0.1489,-0.2221 -0.2035,-0.25453 -0.2872,-0.1704 -0.1601,0.16107 -0.2033,0.71573 -0.1714,2.20214 0.014,0.64926 0.026,1.63471 0.027,2.18989 0,1.06192 0.01,1.08552 0.1447,1.13007 0.035,0.0112 0.1142,-0.0139 0.1963,-0.0623 0.2063,-0.12162 0.5773,-0.16842 0.8022,-0.10117 0.2083,0.0623 0.355,0.14979 0.4211,0.25116 0.075,0.11499 0.1323,0.47591 0.1862,1.16982 0.027,0.34599 0.079,0.76561 0.1158,0.93247 0.076,0.34508 0.064,0.44651 -0.061,0.51173 -0.1353,0.0704 -0.5446,0.16551 -0.9588,0.22289 -0.2064,0.0286 -0.6988,0.10719 -1.0943,0.17466 -0.3955,0.0675 -0.9935,0.15934 -1.3288,0.20414 -0.8167,0.10912 -1.5638,0.24316 -2.001,0.35901 -0.4798,0.12716 -0.6504,0.12683 -0.7957,-0.002 -0.1365,-0.12056 -0.162,-0.2188 -0.1859,-0.71571 -0.012,-0.24322 -0.047,-0.50767 -0.095,-0.70772 -0.042,-0.17566 -0.1131,-0.52069 -0.158,-0.76673 -0.094,-0.51254 -0.087,-0.54673 0.1191,-0.63492 0.2012,-0.086 0.265,-0.0961 0.8059,-0.12698 0.4599,-0.0263 0.5198,-0.0366 0.6802,-0.1175 0.311,-0.15679 0.2925,-0.0284 0.2966,-2.06354 0,-0.97249 0,-2.99249 0,-4.48891 0,-1.49642 0,-2.96138 4e-4,-3.25547 0.01,-0.84797 -0.078,-0.97898 -0.6677,-1.04087 -0.4939,-0.0518 -0.6066,-0.24492 -0.4514,-0.77316 0.074,-0.25134 0.086,-0.34746 0.084,-0.67083 0,-0.38012 -0.046,-0.86401 -0.1061,-1.17423 -0.074,-0.37807 -0.028,-0.39558 0.9506,-0.36684 0.9457,0.0278 3.2491,-0.0317 3.6623,-0.0946 0.1705,-0.0259 0.3802,-0.0471 0.4661,-0.0471 0.1409,0 0.1674,0.012 0.2728,0.12354 0.064,0.0679 0.1556,0.20312 0.2029,0.30039 0.1082,0.22263 0.1256,0.50775 0.084,1.36894 -0.03,0.61216 -0.03,0.61387 -0.1469,0.87841 -0.1616,0.36601 -0.2254,0.70344 -0.1756,0.92743 0.058,0.26118 0.2575,0.64473 0.4948,0.95161 0.3607,0.46664 0.8151,1.16474 1.007,1.54724 0.054,0.10736 0.1419,0.31731 0.1956,0.46656 0.095,0.26276 0.286,0.58618 0.4622,0.78036 0.1459,0.16092 0.5102,0.7878 0.8681,1.49405 0.1885,0.37195 0.3894,0.75411 0.4463,0.84926 0.1204,0.20116 0.2762,0.37744 0.3334,0.37744 0.1259,0 0.2073,-0.4495 0.2904,-1.60414 0.047,-0.65348 0.055,-1.05265 0.045,-2.15459 -0.015,-1.60854 -0.02,-1.68703 -0.1213,-2.0273 -0.1344,-0.45177 -0.1613,-0.47066 -0.7039,-0.49471 -0.4651,-0.0206 -0.5737,-0.0493 -0.6664,-0.17614 -0.1841,-0.25189 -0.1889,-0.52034 -0.02,-1.10777 0.1564,-0.54246 0.1814,-0.73804 0.1465,-1.14565 -0.021,-0.24597 -0.02,-0.36418 0,-0.38734 0.051,-0.0513 0.5755,-0.0842 0.8815,-0.0553 0.1507,0.0142 0.4759,0.0699 0.7227,0.12382 0.2468,0.0539 0.702,0.14611 1.0116,0.20497 0.3095,0.0589 0.7034,0.13631 0.8754,0.17212 0.172,0.0358 0.4604,0.0946 0.6409,0.13069 0.6255,0.12497 1.1581,0.33032 1.3916,0.53654 0.2384,0.21058 0.2583,0.38965 0.1253,1.1279 -0.112,0.62157 -0.2159,0.99637 -0.3617,1.30506 -0.1008,0.21359 -0.1427,0.26967 -0.2334,0.31299 -0.105,0.0501 -0.1231,0.0495 -0.359,-0.012 -0.3446,-0.0899 -0.4455,-0.085 -0.5701,0.0273 l -0.1021,0.092 0.01,0.35617 c 0,0.1959 -0.01,0.65659 -0.025,1.02377 -0.077,1.64307 -0.086,2.89825 -0.042,5.48164 0.045,2.61033 0.058,2.90412 0.1607,3.53856 0.077,0.47737 0.075,0.77441 -0.01,0.86517 -0.07,0.0776 -0.3401,0.22151 -0.5315,0.28291 -0.218,0.0699 -0.5531,0.25237 -0.8591,0.46772 -0.6125,0.43101 -0.7085,0.47728 -0.8605,0.41469 z"
         id="path1099" />
      <path
         style="fill:#000000;stroke:#ffffff;stroke-width:2.37049;stroke-miterlimit:4;stroke-dasharray:none;stroke-opacity:1;paint-order:stroke fill markers"
         d="m 3203.7653,432.24773 c -0.074,-0.016 -0.6089,-0.61439 -0.6865,-0.76757 -0.036,-0.0717 -0.1498,-0.25537 -0.2522,-0.40824 -0.1023,-0.15287 -0.1995,-0.31711 -0.2159,-0.36498 -0.016,-0.0479 -0.066,-0.29935 -0.1097,-0.55884 -0.1191,-0.70272 -0.1332,-1.34489 -0.047,-2.13886 0.099,-0.90969 0.1577,-1.13584 0.3629,-1.38775 0.06,-0.0739 0.1631,-0.23782 0.2286,-0.36415 0.161,-0.31037 0.53,-0.91578 0.6402,-1.05023 0.1645,-0.20084 0.565,-0.33829 0.7788,-0.26731 0.267,0.0887 0.5841,0.45033 0.6983,0.7965 0.03,0.091 0.1223,0.31836 0.205,0.50515 0.2394,0.54058 0.3231,0.88498 0.4173,1.71574 0.1132,0.99967 0.01,1.74753 -0.3296,2.3875 -0.085,0.16002 -0.2269,0.42895 -0.3156,0.59762 -0.395,0.75125 -1.0521,1.37532 -1.3745,1.30542 z"
         id="path1097" />
      <path
         style="fill:#000000;stroke:#ffffff;stroke-width:2.37049;stroke-miterlimit:4;stroke-dasharray:none;stroke-opacity:1;paint-order:stroke fill markers"
         d="m 3203.1281,436.76821 c -0.2962,-0.0323 -0.6588,-0.12705 -1.0162,-0.26564 -0.1633,-0.0633 -0.3955,-0.15155 -0.5159,-0.19601 -0.4328,-0.15986 -0.9551,-0.56926 -1.5789,-1.23769 -0.5993,-0.64221 -0.8742,-1.06957 -1.1046,-1.71754 -0.044,-0.12388 -0.172,-0.41404 -0.2842,-0.6448 -0.2452,-0.50393 -0.3441,-0.84476 -0.4094,-1.41036 -0.077,-0.67161 -0.09,-1.28309 -0.051,-2.43519 0.061,-1.7886 0.074,-1.90817 0.3156,-2.97488 0.087,-0.38169 0.1869,-0.67289 0.401,-1.16379 0.094,-0.21624 0.2338,-0.5701 0.31,-0.78635 0.1733,-0.49209 0.2661,-0.66239 0.6693,-1.22894 0.3459,-0.48594 0.9209,-1.10144 1.2659,-1.35495 0.2657,-0.19526 1.0597,-0.59672 1.4485,-0.73243 0.4942,-0.17246 0.7634,-0.2095 1.5191,-0.20908 0.9786,5.5e-4 1.6387,0.10924 2.2281,0.36686 0.7507,0.32812 1.107,0.57836 1.6488,1.15802 0.4308,0.46084 0.8254,0.97735 0.9954,1.30285 0.065,0.12375 0.1716,0.37028 0.2377,0.54784 0.066,0.17755 0.1626,0.41681 0.2145,0.53169 0.2494,0.55203 0.4341,1.25488 0.6352,2.41754 0.095,0.54592 0.095,0.55974 0.094,1.68278 0,0.94478 -0.011,1.20788 -0.062,1.58842 -0.1378,1.02346 -0.4377,1.87981 -1.2006,3.42832 -0.2517,0.51097 -1.7564,2.1332 -2.3207,2.50208 -0.5551,0.36283 -1.5789,0.76842 -2.0948,0.82992 -0.313,0.0373 -1.008,0.038 -1.3444,10e-4 z m 1.36,-3.0357 c 0.4131,-0.111 0.693,-0.2801 1.0836,-0.65464 0.532,-0.51008 0.8002,-0.90115 1.2758,-1.86034 0.077,-0.1557 0.1748,-0.41047 0.217,-0.56617 0.3602,-1.33039 0.4121,-2.02772 0.2391,-3.20833 -0.1007,-0.68729 -0.1936,-1.17115 -0.2718,-1.41538 -0.059,-0.18461 -0.2884,-0.7408 -0.3242,-0.78635 -0.014,-0.0173 -0.075,-0.15659 -0.136,-0.30954 -0.1468,-0.36722 -0.2291,-0.5035 -0.5065,-0.83885 -0.223,-0.26947 -0.2457,-0.28721 -0.5685,-0.44315 -0.4729,-0.22845 -0.5723,-0.25152 -1.1675,-0.27088 -0.6612,-0.0215 -0.9407,0.0271 -1.2636,0.21973 -0.5576,0.33267 -0.8623,0.62697 -1.0456,1.00987 -0.2216,0.46296 -0.4459,0.97556 -0.5178,1.18326 -0.039,0.11245 -0.1142,0.31352 -0.1673,0.44684 -0.053,0.13331 -0.1332,0.43055 -0.1779,0.66053 -0.045,0.22998 -0.1173,0.59507 -0.1612,0.81132 -0.1166,0.57505 -0.1306,1.17818 -0.043,1.8715 0.1782,1.41388 0.3131,1.92923 0.7206,2.75221 0.4239,0.85597 0.5376,0.99471 0.9974,1.21748 0.5531,0.26794 1.2394,0.33624 1.8176,0.18089 z"
         id="path1095" />
    </g>
    <g
       id="g1064"
       transform="matrix(1,0,-0.01745374,1,7.4509594,0)">
      <path
         style="fill:#000000;stroke:#ffffff;stroke-width:2.37049;stroke-miterlimit:4;stroke-dasharray:none;stroke-opacity:1;paint-order:stroke fill markers"
         d="m 3155.3683,428.52189 c -0.2633,-0.11943 -0.6169,-0.44681 -0.9355,-0.86632 -0.1332,-0.17539 -0.3464,-0.45602 -0.4738,-0.62362 -0.1273,-0.1676 -0.3502,-0.45423 -0.4951,-0.63697 -0.4194,-0.52863 -0.4334,-0.64847 -0.1135,-0.97189 0.1086,-0.10959 0.3071,-0.31228 0.4413,-0.45044 0.2155,-0.22184 0.2644,-0.25637 0.4179,-0.29551 0.2618,-0.0667 0.5863,-0.008 1.191,0.21488 0.184,0.0678 0.2638,0.0764 0.7232,0.0776 0.347,8.6e-4 0.5549,0.0155 0.6334,0.0447 0.1054,0.0391 0.1199,0.0583 0.1464,0.19426 0.017,0.0829 0.031,0.49078 0.025,0.90662 0,0.41566 0.01,1.02618 0.023,1.35672 0.036,0.80497 0.044,0.77136 -0.2068,0.88088 -0.4137,0.18088 -0.6172,0.23735 -0.9003,0.24972 -0.2459,0.0107 -0.294,0.003 -0.4775,-0.0806 z"
         id="path1123" />
      <path
         style="fill:#000000;stroke:#ffffff;stroke-width:2.37049;stroke-miterlimit:4;stroke-dasharray:none;stroke-opacity:1;paint-order:stroke fill markers"
         d="m 3142.4795,430.62502 c -0.1636,-0.0445 -0.2287,-0.0958 -0.2967,-0.23365 -0.066,-0.13305 -0.07,-0.17989 -0.078,-0.83612 -0.01,-0.42221 -0.029,-0.89201 -0.064,-1.19644 -0.18,-1.61124 -0.3514,-4.32617 -0.3113,-4.92936 0.017,-0.25617 0.028,-0.29312 0.109,-0.37471 0.073,-0.0734 0.1196,-0.0918 0.2458,-0.0973 0.1353,-0.006 0.1728,0.008 0.2873,0.10282 0.1852,0.15411 0.3821,0.47176 0.4727,0.76235 0.073,0.23625 0.082,0.33068 0.1672,2.08744 0.076,1.51168 0.1039,1.92044 0.1651,2.29111 0.041,0.24813 0.084,0.64904 0.096,0.89097 0.022,0.50253 0,0.62168 -0.2034,1.04785 -0.1933,0.40189 -0.3678,0.54539 -0.5896,0.48503 z"
         id="path1121" />
      <path
         style="fill:#000000;stroke:#ffffff;stroke-width:2.37049;stroke-miterlimit:4;stroke-dasharray:none;stroke-opacity:1;paint-order:stroke fill markers"
         d="m 3108.7749,432.96093 c -0.055,-0.10493 -0.01,-0.49618 0.1337,-1.1569 0.2158,-0.99564 0.3662,-1.64628 0.3917,-1.69516 0.057,-0.10974 0.1948,-0.13558 0.7074,-0.13297 0.529,0.002 0.5193,0.002 1.539,0.24593 0.2266,0.0545 0.5971,0.14341 0.8234,0.19772 0.6272,0.15058 0.7787,0.27164 0.6283,0.50214 -0.1349,0.20667 -0.4472,0.51481 -0.6995,0.68991 -0.1512,0.10489 -0.3456,0.24635 -0.4322,0.31435 -0.1932,0.15168 -1.2143,0.65414 -1.5104,0.74316 -0.1191,0.0357 -0.3505,0.11796 -0.5144,0.1827 -0.194,0.0766 -0.3908,0.12857 -0.5633,0.1488 -0.394,0.0461 -0.4619,0.0408 -0.5038,-0.0397 z"
         id="path1119" />
      <path
         style="fill:#000000;stroke:#ffffff;stroke-width:2.37049;stroke-miterlimit:4;stroke-dasharray:none;stroke-opacity:1;paint-order:stroke fill markers"
         d="m 3164.008,430.57654 c -0.083,-0.0456 -0.4815,-0.43531 -0.6836,-0.66781 -0.4515,-0.51933 -0.6785,-1.34179 -0.739,-2.67708 -0.033,-0.76046 -0.015,-1.0031 0.1379,-1.67814 0.092,-0.40763 0.1611,-0.62104 0.3181,-0.98147 0.2302,-0.52882 0.4535,-0.90498 0.627,-1.05646 0.1715,-0.14977 0.5144,-0.33639 0.6271,-0.34131 0.3821,-0.0167 0.8289,0.55781 1.2439,1.5996 0.2695,0.67613 0.3616,1.04806 0.4321,1.74323 0.075,0.73752 0.056,1.04548 -0.096,1.51541 -0.2046,0.63582 -0.5795,1.45379 -0.8646,1.88614 -0.1242,0.18867 -0.4193,0.45215 -0.6589,0.58851 -0.1975,0.11242 -0.2478,0.12255 -0.344,0.0694 z"
         id="path1107" />
      <path
         style="fill:#000000;stroke:#ffffff;stroke-width:2.37049;stroke-miterlimit:4;stroke-dasharray:none;stroke-opacity:1;paint-order:stroke fill markers"
         d="m 3163.5934,435.15391 c -0.1504,-0.0181 -0.4681,-0.0963 -0.7119,-0.17536 -0.242,-0.0785 -0.5282,-0.16639 -0.6359,-0.19527 -0.2863,-0.0769 -0.9782,-0.50206 -1.5045,-0.92458 -0.1387,-0.11141 -0.3842,-0.33953 -0.5457,-0.50694 -0.2576,-0.26721 -0.3239,-0.3608 -0.5432,-0.76639 -0.6938,-1.28334 -0.7918,-1.51153 -1.0095,-2.34804 -0.2144,-0.82423 -0.3015,-1.50647 -0.3582,-2.80473 -0.051,-1.15906 -0.042,-1.58013 0.041,-2.01416 0.028,-0.14844 0.082,-0.47664 0.1202,-0.72938 0.074,-0.49798 0.1948,-0.89372 0.4939,-1.62724 0.097,-0.238 0.2121,-0.54505 0.2559,-0.68233 0.143,-0.44941 0.3354,-0.80311 0.7489,-1.3765 0.4893,-0.67839 0.9068,-1.09919 1.439,-1.45008 0.3997,-0.26358 0.534,-0.32995 0.9969,-0.49313 0.9581,-0.33773 2.47,-0.37773 3.5154,-0.093 0.2454,0.0669 1.0949,0.47496 1.3861,0.66594 0.7988,0.52392 1.6018,1.57861 2.1423,2.81392 0.2714,0.62059 0.3434,0.86806 0.6317,2.17434 0.1528,0.69279 0.1547,0.70749 0.1878,1.48728 0.084,1.93538 0.01,2.89583 -0.2901,3.69641 -0.053,0.14184 -0.1592,0.4519 -0.2368,0.68905 -0.078,0.23716 -0.1682,0.5103 -0.2012,0.60698 -0.08,0.2332 -0.5777,1.06321 -0.8842,1.47425 -0.2507,0.33604 -0.9689,1.10603 -1.2435,1.33304 -0.4015,0.33198 -0.951,0.66682 -1.2144,0.73989 -0.093,0.026 -0.3156,0.10116 -0.4933,0.16708 -0.3758,0.1393 -1.1304,0.30956 -1.5341,0.34613 -0.1605,0.015 -0.3967,0.0113 -0.5521,-0.007 z m 1.1665,-3.12421 c 0.5008,-0.10655 0.9764,-0.38105 1.2433,-0.71751 0.086,-0.10844 0.2384,-0.29793 0.3388,-0.42115 0.1003,-0.12321 0.2083,-0.28592 0.2399,-0.36157 0.333,-0.79634 0.5346,-1.3522 0.769,-2.1206 0.1793,-0.58801 0.2072,-0.78206 0.2002,-1.39638 -0.011,-0.90771 -0.1599,-1.55224 -0.753,-3.25483 -0.1882,-0.53966 -0.5601,-1.22333 -0.7802,-1.43413 -0.085,-0.0816 -0.2702,-0.21278 -0.4114,-0.29164 -0.5513,-0.30798 -0.6995,-0.34768 -1.3616,-0.36442 -0.631,-0.016 -0.8991,0.0685 -1.4756,0.46502 -0.4446,0.30575 -0.665,0.60067 -0.8969,1.20054 -0.048,0.12649 -0.1854,0.45123 -0.3033,0.72163 -0.1738,0.3986 -0.2237,0.55161 -0.2636,0.80861 -0.2873,1.84997 -0.2883,2.62 0,3.93568 0.052,0.24019 0.1077,0.54233 0.1244,0.67148 0.017,0.12914 0.052,0.30576 0.081,0.39241 0.064,0.1947 0.3217,0.69725 0.4398,0.8545 0.048,0.0642 0.1276,0.18821 0.1765,0.27565 0.1174,0.21031 0.5246,0.73249 0.6419,0.82327 0.1333,0.10326 0.7854,0.27278 1.1071,0.2878 0.2894,0.0135 0.5964,-0.0122 0.8887,-0.0744 z"
         id="path1105" />
      <path
         style="fill:#000000;stroke:#ffffff;stroke-width:2.37049;stroke-miterlimit:4;stroke-dasharray:none;stroke-opacity:1;paint-order:stroke fill markers"
         d="m 3130.1385,436.31361 c -0.1877,-0.0692 -0.343,-0.33087 -0.4375,-0.73778 -0.1011,-0.43561 -0.1648,-0.61601 -0.3246,-0.92229 -0.2114,-0.40498 -0.2627,-0.54543 -0.2916,-0.7995 -0.025,-0.21952 -0.025,-0.22113 0.077,-0.31944 0.072,-0.0689 0.2278,-0.14587 0.5167,-0.25443 0.4766,-0.17898 0.606,-0.28595 0.6588,-0.54459 0.044,-0.21893 0.015,-0.64984 -0.066,-0.9552 -0.04,-0.14959 -0.1049,-0.476 -0.1442,-0.72536 -0.1118,-0.70366 -0.1733,-0.97228 -0.2427,-1.05796 -0.062,-0.0766 -0.071,-0.0779 -0.6074,-0.0769 -0.2995,5.7e-4 -1.1784,0.0252 -1.9533,0.0549 -1.5844,0.0602 -1.5137,0.0476 -1.6279,0.29951 -0.032,0.0713 -0.086,0.31068 -0.1192,0.53209 -0.033,0.22142 -0.085,0.50535 -0.1157,0.631 -0.075,0.30729 -0.047,0.41684 0.1511,0.59942 0.1188,0.10957 0.21,0.15879 0.4064,0.21954 0.368,0.11375 0.448,0.15019 0.5608,0.25551 0.2895,0.27037 0.3094,0.55266 0.088,1.24597 -0.076,0.23801 -0.1556,0.5532 -0.1769,0.70036 -0.1048,0.72311 -0.166,0.85559 -0.4005,0.86582 -0.041,0.002 -0.2464,-0.053 -0.4564,-0.12176 -0.21,-0.0687 -0.3973,-0.12433 -0.416,-0.12351 -0.019,8.3e-4 -0.3508,-0.0892 -0.7377,-0.20009 -0.3869,-0.11088 -0.7885,-0.21488 -0.8924,-0.23111 -0.2037,-0.0317 -1.089,-0.24801 -2.1422,-0.52319 -0.3607,-0.0943 -0.7094,-0.17802 -0.7748,-0.18613 -0.2914,-0.0361 -0.51,-0.12107 -0.6319,-0.24549 -0.1167,-0.11907 -0.1204,-0.12928 -0.1092,-0.30027 0.01,-0.0974 0.056,-0.31355 0.1109,-0.48044 0.055,-0.1669 0.1617,-0.58969 0.2377,-0.93956 0.2528,-1.16467 0.2253,-1.14251 1.0936,-0.88154 0.8426,0.25326 0.9678,0.23188 1.1682,-0.19966 0.1462,-0.31477 0.1819,-0.46432 0.2599,-1.08722 0.039,-0.30662 0.1199,-0.82885 0.1813,-1.16053 0.062,-0.33171 0.1339,-0.78822 0.161,-1.01452 0.05,-0.41812 0.1229,-0.79398 0.292,-1.50822 0.052,-0.21871 0.1118,-0.51886 0.1333,-0.66699 0.073,-0.50224 0.4617,-2.746 0.5305,-3.06135 0.027,-0.12238 0.076,-0.30791 0.109,-0.41231 0.046,-0.14261 0.061,-0.29677 0.064,-0.62002 0,-0.47612 0.029,-0.55785 0.2028,-0.6556 0.055,-0.0307 0.2497,-0.15176 0.4338,-0.26915 0.1843,-0.11738 0.5007,-0.28827 0.7032,-0.37976 0.2026,-0.0915 0.5744,-0.28612 0.8262,-0.43249 0.2517,-0.14637 0.7533,-0.43231 1.1145,-0.63542 0.3612,-0.20311 0.7801,-0.44648 0.9309,-0.54082 0.1508,-0.0944 0.5355,-0.31479 0.8548,-0.48987 0.3195,-0.1751 0.6665,-0.38996 0.7714,-0.47747 0.1047,-0.0876 0.2033,-0.15967 0.2191,-0.16036 0.052,-0.002 0.1264,0.13407 0.1838,0.33844 0.037,0.13077 0.064,0.35883 0.076,0.64669 0.017,0.38712 0.039,0.52672 0.1707,1.07874 0.2657,1.1165 0.4076,1.84052 0.5437,2.77356 0.071,0.4885 0.1894,1.08707 0.308,1.56051 0.041,0.16258 0.1188,0.52048 0.1728,0.7953 0.054,0.27483 0.1349,0.67977 0.1789,0.89993 0.044,0.22017 0.1274,0.66988 0.1855,0.99938 0.058,0.32949 0.1312,0.71133 0.1619,0.84852 0.059,0.26024 0.1487,0.75862 0.2276,1.26516 0.025,0.16341 0.097,0.52862 0.1604,0.81157 0.1602,0.72158 0.2834,1.47747 0.2997,1.83715 0.016,0.34797 0.036,0.43429 0.106,0.45791 0.027,0.009 0.1745,-0.0263 0.3274,-0.079 0.3345,-0.11511 0.5213,-0.11544 0.8503,-10e-4 0.4569,0.15831 0.5779,0.32786 0.6639,0.92995 0.051,0.35618 0.2298,0.70893 0.4161,0.82042 0.084,0.0503 0.088,0.0497 0.139,-0.0196 0.029,-0.0393 0.059,-0.14609 0.067,-0.23746 0.05,-0.56389 0.191,-1.08204 0.3061,-1.1199 0.1675,-0.055 0.2793,-0.058 0.6611,-0.0175 0.5773,0.0612 0.7265,0.0526 0.8333,-0.0484 l 0.085,-0.0797 -0.1552,-4.12822 c -0.1551,-4.12538 -0.2003,-4.99897 -0.2727,-5.35096 -0.052,-0.24976 -0.1439,-0.32509 -0.5096,-0.41653 -0.4024,-0.1006 -0.6767,-0.21185 -0.7523,-0.30512 -0.056,-0.0687 -0.068,-0.12885 -0.077,-0.39018 -0.018,-0.41136 -0.099,-1.13282 -0.1641,-1.40789 -0.028,-0.122 -0.066,-0.32197 -0.083,-0.44441 -0.058,-0.40722 0.014,-0.44572 0.8966,-0.48453 0.3815,-0.0168 0.8096,-0.0581 1.1687,-0.11279 0.8371,-0.12753 2.0859,-0.30703 2.3707,-0.34075 0.3102,-0.0368 0.8481,-0.13001 1.2227,-0.21201 0.1568,-0.0343 0.3375,-0.0603 0.4016,-0.0578 0.1164,0.005 0.1166,0.005 0.1198,0.14616 0,0.0778 -0.01,0.36354 -0.017,0.63487 -0.019,0.44517 -0.014,0.52334 0.046,0.80082 0.078,0.35692 0.089,0.5597 0.049,0.89468 -0.037,0.3064 -0.09,0.39567 -0.3058,0.50472 -0.1517,0.0768 -0.2328,0.0931 -0.6448,0.12906 -0.4847,0.0424 -0.4985,0.0467 -0.6818,0.21129 -0.037,0.0327 -0.081,0.10262 -0.098,0.15528 -0.044,0.13396 0.1433,5.02448 0.2253,5.89338 0.033,0.35352 0.091,0.96022 0.1289,1.34818 0.037,0.38799 0.09,1.17909 0.1158,1.75804 0.041,0.94683 0.056,1.06256 0.1084,1.15259 0.073,0.1223 0.3703,0.34199 0.5993,0.44341 0.1648,0.0731 0.181,0.0741 0.5962,0.0383 0.6794,-0.0585 0.7416,6.5e-4 0.594,0.56534 -0.1273,0.48623 -0.1569,0.72069 -0.1379,1.08946 0.012,0.26691 0.01,0.38025 -0.04,0.54217 -0.032,0.11261 -0.065,0.30951 -0.071,0.43747 -0.01,0.17306 -0.027,0.24445 -0.07,0.27853 -0.075,0.0605 -0.104,0.0596 -0.2769,-0.009 -0.1157,-0.0455 -0.2588,-0.059 -0.6874,-0.0645 -0.7548,-0.01 -1.8884,-0.0406 -2.2807,-0.0621 -0.1811,-0.01 -0.8708,8e-5 -1.5325,0.0223 -0.6617,0.0219 -1.2341,0.0344 -1.272,0.0271 -0.041,-0.008 -0.1461,-0.1153 -0.2591,-0.26465 -0.2294,-0.30311 -0.3319,-0.40962 -0.4461,-0.4634 -0.1083,-0.051 -0.3395,-0.0415 -0.5404,0.0226 -0.1839,0.0583 -0.7655,0.31463 -1.2128,0.53456 -0.177,0.087 -0.5638,0.25768 -0.8597,0.3793 -0.296,0.12162 -0.5895,0.2462 -0.6525,0.27683 -0.063,0.0307 -0.3128,0.11305 -0.5553,0.18323 -0.536,0.15504 -0.6195,0.19295 -0.9308,0.42303 -0.257,0.1898 -0.2651,0.19326 -0.3667,0.15584 z m -1.1879,-9.21807 c 0.1614,-0.0763 0.1994,-0.165 0.1867,-0.43563 -0.01,-0.13009 -0.03,-0.36321 -0.053,-0.51806 -0.023,-0.15484 -0.073,-0.49977 -0.1125,-0.76644 -0.039,-0.26671 -0.1062,-0.66754 -0.1485,-0.8908 -0.082,-0.42901 -0.1466,-0.8372 -0.1976,-1.25072 -0.064,-0.51831 -0.1987,-0.93481 -0.3325,-1.02805 -0.1336,-0.0931 -0.6502,0.0419 -0.941,0.2459 -0.1382,0.0969 -0.3483,0.35635 -0.4236,0.52301 -0.045,0.0986 -0.1557,0.64118 -0.2087,1.01924 -0.021,0.14809 -0.072,0.44077 -0.1132,0.65037 -0.041,0.20957 -0.09,0.55881 -0.1072,0.77603 -0.018,0.21721 -0.045,0.54429 -0.061,0.72681 -0.056,0.62613 -0.01,0.95376 0.1539,1.03133 0.051,0.0246 0.1426,0.0192 0.3695,-0.0211 0.3779,-0.0678 0.9779,-0.0873 1.4287,-0.0465 0.4506,0.0409 0.4407,0.0411 0.5596,-0.0154 z"
         id="path1103" />
      <path
         style="fill:#000000;stroke:#ffffff;stroke-width:2.37049;stroke-miterlimit:4;stroke-dasharray:none;stroke-opacity:1;paint-order:stroke fill markers"
         d="m 3152.0888,435.98327 c -0.033,-0.0335 -0.1277,-0.21516 -0.2114,-0.40369 -0.2364,-0.5335 -0.3426,-0.69051 -0.7083,-1.0472 -0.4366,-0.42598 -0.4705,-0.54928 -0.2424,-0.88305 0.096,-0.14012 0.1444,-0.1768 0.366,-0.27629 0.542,-0.24328 0.9169,-0.59775 0.9045,-0.85526 -0.013,-0.30408 -1.116,-1.98081 -1.9631,-2.98875 -0.2637,-0.31365 -0.5533,-0.74157 -0.8135,-1.20213 -0.2571,-0.45484 -0.5892,-0.73944 -0.9057,-0.77628 -0.2694,-0.0314 -0.6556,0.18274 -0.7603,0.42138 -0.045,0.10175 -0.05,0.19272 -0.029,0.59147 0.011,0.25924 0.057,0.7248 0.098,1.03467 0.042,0.30988 0.09,0.85321 0.1088,1.20739 0.015,0.3543 0.048,0.72052 0.067,0.81407 0.045,0.22136 0.1881,0.43395 0.337,0.49959 0.1081,0.0477 0.1368,0.0471 0.4216,-0.008 0.4767,-0.0929 0.7193,-0.11899 0.7899,-0.0847 0.035,0.0169 0.1014,0.099 0.1485,0.18229 0.1031,0.18395 0.1275,0.5018 0.065,0.83734 -0.075,0.40395 -0.1518,1.10186 -0.143,1.3069 0.01,0.16227 0.026,0.2294 0.091,0.3266 0.1123,0.16663 0.114,0.25296 0,0.27939 -0.3648,0.0882 -0.9341,0.0851 -1.5574,-0.009 -0.1732,-0.0261 -0.4351,-0.0569 -0.5819,-0.0685 -0.1467,-0.0116 -0.5501,-0.0569 -0.8962,-0.1004 -0.3463,-0.0435 -0.7636,-0.0892 -0.9277,-0.10131 -0.3517,-0.026 -0.6941,-0.057 -0.9642,-0.0871 -0.1072,-0.0119 -0.4443,-0.0246 -0.7494,-0.028 -0.6464,-0.007 -0.7022,-0.0247 -0.7108,-0.22102 0,-0.0693 0.037,-0.24184 0.089,-0.38883 0.1322,-0.37089 0.2269,-0.73663 0.2574,-0.99295 0.015,-0.12046 0.056,-0.30091 0.093,-0.40105 0.037,-0.10009 0.087,-0.27996 0.1113,-0.39964 0.027,-0.1324 0.071,-0.24463 0.1122,-0.28658 0.037,-0.038 0.1991,-0.12804 0.3596,-0.20023 0.3314,-0.14895 0.4604,-0.27506 0.547,-0.53454 0.059,-0.17839 0.057,-0.2517 -0.1846,-4.96335 -0.1375,-2.66718 -0.2014,-3.48811 -0.2954,-3.79542 -0.1015,-0.33147 -0.3125,-0.50761 -0.68,-0.56837 -0.1183,-0.0196 -0.2253,-0.0465 -0.238,-0.06 -0.036,-0.0374 -0.2164,-0.79751 -0.2688,-1.12805 -0.032,-0.20039 -0.08,-0.36337 -0.1519,-0.51285 -0.058,-0.1205 -0.1355,-0.29441 -0.1722,-0.38643 -0.08,-0.20012 -0.1,-0.47831 -0.038,-0.53429 0.078,-0.0714 0.8012,-0.23102 2.3409,-0.51696 0.366,-0.0679 0.7638,-0.14896 0.8841,-0.18 0.1202,-0.031 0.4009,-0.0724 0.6238,-0.0918 0.5118,-0.0447 0.8533,-0.13907 0.994,-0.27474 0.2155,-0.20779 0.4517,-0.11691 0.6335,0.24389 0.1311,0.26012 0.263,0.87057 0.3718,1.71937 0.024,0.19389 0.069,0.40266 0.097,0.46398 0.063,0.13532 0.077,0.33499 0.027,0.38151 -0.02,0.0187 -0.1915,0.0568 -0.3796,0.0846 -1.0385,0.15351 -1.1146,0.17932 -1.1442,0.38843 -0.023,0.16238 0.1075,1.9794 0.1748,2.44396 0.014,0.0871 0.053,0.20229 0.088,0.25589 0.055,0.0826 0.083,0.0966 0.186,0.0921 0.1727,-0.008 0.4908,-0.19543 0.8131,-0.48014 0.1492,-0.13175 0.4525,-0.38745 0.6741,-0.56824 0.2216,-0.18078 0.4792,-0.40977 0.5724,-0.50888 0.189,-0.2009 0.6285,-0.53399 0.9702,-0.73518 0.1235,-0.0728 0.2949,-0.20624 0.3809,-0.29671 0.2247,-0.23623 0.2734,-0.40956 0.2814,-1.00174 0.01,-0.54194 0.034,-0.62926 0.3256,-1.07157 0.094,-0.1423 0.2446,-0.38238 0.3351,-0.53352 0.094,-0.15664 0.2924,-0.41236 0.4618,-0.59475 0.3983,-0.42855 0.4162,-0.42865 0.9256,-0.005 0.1402,0.11654 0.4016,0.30012 0.581,0.40794 0.1794,0.10783 0.5149,0.32555 0.7455,0.48382 0.2307,0.15827 0.4822,0.31628 0.5589,0.35114 0.1335,0.0607 0.502,0.28062 1.3979,0.8341 0.8458,0.52263 0.9879,0.65023 0.9969,0.89523 0,0.0823 -0.036,0.15415 -0.1909,0.34834 -0.1071,0.13455 -0.268,0.36825 -0.3574,0.51935 -0.4698,0.79367 -0.8544,1.30223 -1.0229,1.35267 -0.1484,0.0444 -0.2797,-0.0384 -0.7323,-0.46253 -0.507,-0.47503 -0.6375,-0.54848 -0.9439,-0.53158 -0.2817,0.0153 -0.4878,0.13295 -0.7025,0.40016 -0.096,0.11945 -0.2329,0.25508 -0.3042,0.3014 -0.071,0.0463 -0.2354,0.17677 -0.3647,0.28985 -0.1292,0.1131 -0.3514,0.27973 -0.4938,0.3703 -0.1424,0.0906 -0.2926,0.19764 -0.3338,0.23793 -0.2107,0.20561 -0.576,0.47941 -0.8258,0.61893 -0.3139,0.17529 -0.3931,0.27119 -0.4362,0.52812 -0.021,0.12658 -0.014,0.20377 0.033,0.37827 0.053,0.19434 0.1096,0.28652 0.4971,0.81185 0.2406,0.32595 0.5799,0.79514 0.7543,1.04264 0.1744,0.24749 0.3789,0.52509 0.4545,0.61687 0.076,0.0918 0.2024,0.25331 0.2817,0.35895 0.08,0.10563 0.325,0.42785 0.5462,0.71602 0.2211,0.28817 0.452,0.61384 0.5131,0.72374 0.1474,0.26499 0.3453,0.52964 0.456,0.60961 0.1138,0.0822 0.1635,0.072 0.7995,-0.16367 0.539,-0.19975 0.8458,-0.25995 0.9854,-0.19343 0.046,0.0217 0.2292,0.18415 0.4077,0.36085 0.3116,0.30853 0.3329,0.33832 0.5354,0.74992 0.2413,0.49057 0.3271,0.69952 0.3904,0.95058 0.039,0.15522 0.039,0.18503 0,0.23743 -0.028,0.0329 -0.087,0.071 -0.1321,0.0843 -0.045,0.0134 -0.1442,0.0669 -0.2194,0.11866 -0.075,0.0518 -0.2603,0.16733 -0.4112,0.25664 -0.1511,0.0893 -0.3154,0.19545 -0.3653,0.23586 -0.05,0.0404 -0.2142,0.14737 -0.3651,0.23767 -0.2623,0.15683 -0.5487,0.36448 -1.3197,0.95667 -0.1914,0.1471 -0.5108,0.3594 -0.7096,0.47177 -0.3453,0.19522 -0.6548,0.41806 -0.9153,0.65907 -0.066,0.0613 -0.2444,0.18032 -0.396,0.26465 -0.2287,0.1272 -0.3153,0.15808 -0.5084,0.1811 -0.2067,0.0246 -0.2394,0.021 -0.2922,-0.0331 z"
         id="path1101" />
      <path
         style="fill:#000000;stroke:#ffffff;stroke-width:2.37049;stroke-miterlimit:4;stroke-dasharray:none;stroke-opacity:1;paint-order:stroke fill markers"
         d="m 3109.9361,423.86473 c -0.2066,-0.0198 -1.1433,-0.14684 -1.3273,-0.17975 -0.096,-0.0168 -0.3052,-0.0465 -0.4684,-0.0659 -0.1632,-0.0195 -0.6199,-0.0944 -1.0148,-0.1669 -1.2161,-0.22298 -1.132,-0.19846 -1.4687,-0.42799 -0.2062,-0.14055 -0.27,-0.21806 -0.2408,-0.29271 0.048,-0.12542 0.9101,-0.63398 1.0764,-0.63583 0.023,2e-4 0.186,-0.069 0.3609,-0.15267 0.1749,-0.0837 0.452,-0.19328 0.6158,-0.24348 2.0538,-0.62946 2.1265,-0.64832 2.5186,-0.65263 0.3413,-0.004 0.3425,-0.003 0.363,0.075 0.023,0.0904 -0.016,0.29942 -0.1458,0.71591 -0.08,0.25912 -0.089,0.32941 -0.079,0.6284 0.01,0.28188 0.028,0.3905 0.1196,0.66788 0.1356,0.41139 0.1657,0.63558 0.095,0.70562 -0.05,0.0484 -0.1188,0.0527 -0.405,0.0249 z"
         id="path1093" />
      <path
         style="fill:#000000;stroke:#ffffff;stroke-width:2.37049;stroke-miterlimit:4;stroke-dasharray:none;stroke-opacity:1;paint-order:stroke fill markers"
         d="m 3108.6561,437.56457 c -0.6686,-0.0714 -1.4872,-0.23397 -2.0129,-0.3997 -0.2335,-0.0736 -0.7122,-0.27592 -1.2554,-0.5307 -0.1216,-0.057 -0.4237,-0.24257 -0.6715,-0.41229 -1.4289,-0.97913 -2.3252,-2.07546 -2.7855,-3.40732 -0.1204,-0.34874 -0.4392,-1.06895 -0.5074,-1.14709 -0.073,-0.0848 -0.3865,-0.21054 -0.614,-0.24745 -0.1169,-0.019 -0.3447,-0.0309 -0.5061,-0.0259 -0.255,0.005 -0.3047,6e-4 -0.3811,-0.0569 -0.1487,-0.11007 -0.1968,-0.24752 -0.1962,-0.55897 -5e-4,-0.25139 0.013,-0.30242 0.1142,-0.53452 0.1836,-0.41393 0.2061,-0.53022 0.2973,-1.54582 0.021,-0.21111 0.051,-0.40663 0.077,-0.4437 0.061,-0.0924 0.2156,-0.10981 0.6737,-0.0755 0.2954,0.0225 0.5221,0.0643 0.9366,0.17392 0.8095,0.21414 1.5054,0.32228 2.9735,0.46209 0.7721,0.0737 1.134,0.12287 1.5275,0.20841 0.9802,0.21297 1.18,0.2842 1.4201,0.50626 0.1282,0.11851 0.1382,0.19857 0.062,0.49257 -0.028,0.10304 -0.096,0.47299 -0.1558,0.82207 -0.058,0.34906 -0.1515,0.77614 -0.2048,0.94904 -0.054,0.17294 -0.1306,0.42597 -0.1721,0.56234 -0.1073,0.35368 -0.1103,0.35528 -0.4288,0.25678 -0.3451,-0.10655 -0.5635,-0.10727 -0.7601,-0.003 -0.1696,0.0904 -0.2643,0.19029 -0.2662,0.28034 -3e-4,0.0356 0.087,0.1498 0.2096,0.26972 0.3519,0.34753 1.3465,0.82136 2.1166,1.00844 0.2717,0.0659 1.1595,0.16062 1.5043,0.16029 0.5014,1.3e-4 1.5378,-0.23702 2.2064,-0.50369 0.3171,-0.12639 0.4548,-0.20255 0.6883,-0.38033 0.1606,-0.12226 0.4964,-0.35964 0.7461,-0.52754 0.7047,-0.47385 0.8132,-0.59673 1.2212,-1.38596 0.4356,-0.84226 0.5399,-1.15229 0.4728,-1.40515 -0.053,-0.2064 -0.1594,-0.29681 -0.5861,-0.50678 -0.7608,-0.37432 -1.3444,-0.57502 -2.0151,-0.69286 -0.2019,-0.0355 -0.5536,-0.11333 -0.7813,-0.17289 -0.4425,-0.11578 -0.6285,-0.14252 -1.6805,-0.24187 -0.7267,-0.0685 -1.4208,-0.1127 -2.5478,-0.16166 -0.6241,-0.0273 -1.8574,-0.152 -2.524,-0.25571 -0.4213,-0.0658 -1.0953,-0.29733 -2.0703,-0.71205 -0.4567,-0.19427 -0.6874,-0.32462 -1.0623,-0.59988 -0.3715,-0.27294 -0.5356,-0.44441 -0.7689,-0.80352 -0.4049,-0.62301 -0.5565,-1.0811 -0.6512,-1.96699 -0.043,-0.3952 -0.038,-1.54862 0.011,-1.90298 0.069,-0.52962 0.2713,-1.04127 0.554,-1.4036 0.066,-0.0837 0.2125,-0.28649 0.327,-0.45063 0.3941,-0.56574 1.1173,-1.21721 2.0288,-1.82736 0.6195,-0.41468 0.9855,-0.6171 1.5492,-0.85668 0.1721,-0.0731 0.4817,-0.21011 0.6884,-0.30437 0.6006,-0.27417 1.3531,-0.50427 2.174,-0.66472 0.1464,-0.0285 0.4916,-0.10691 0.7678,-0.17406 0.8392,-0.20405 2.0277,-0.27605 2.744,-0.16616 0.6655,0.10208 1.7664,0.42498 2.4593,0.72129 0.4161,0.17798 1.164,0.58149 1.4671,0.79164 0.3745,0.25957 1.0558,0.95135 1.4233,1.44509 0.3355,0.45057 0.4911,0.73753 0.6022,1.11026 0.1293,0.43478 0.2756,0.59258 0.5865,0.63219 0.3351,0.0425 0.8131,-0.0358 1.002,-0.16472 0.066,-0.0444 0.1634,-0.0998 0.2187,-0.12296 0.096,-0.0404 0.1062,-0.0375 0.2163,0.06 0.1333,0.11801 0.2816,0.34512 0.3805,0.58201 0.065,0.15802 0.096,0.34351 0.2028,1.30643 0.048,0.41901 0.1223,0.64743 0.2844,0.86186 0.1492,0.19766 0.1018,0.26113 -0.3193,0.42355 -0.2315,0.0893 -1.1026,0.27875 -1.9816,0.43087 -0.215,0.0374 -0.6513,0.12918 -0.9694,0.20438 -0.3183,0.0754 -0.804,0.1878 -1.0791,0.25019 -0.2753,0.0625 -0.6132,0.13995 -0.7508,0.17235 -0.1376,0.0322 -0.3486,0.0739 -0.4691,0.0924 -0.3104,0.0474 -0.4935,0.11384 -0.587,0.2126 -0.118,0.12421 -0.1347,0.22754 -0.053,0.33129 0.099,0.12834 0.2325,0.18692 1.155,0.51075 0.4048,0.14218 0.9979,0.43676 1.4836,0.7372 0.4805,0.29705 1.1447,1.02391 1.4439,1.58017 0.2234,0.41539 0.4355,0.97053 0.4869,1.27474 0.1096,0.64949 0.098,0.8023 -0.095,1.44669 -0.042,0.13832 -0.131,0.47114 -0.1986,0.73959 -0.1948,0.77238 -0.4107,1.13387 -1.2766,2.13586 -0.127,0.14683 -0.3204,0.37297 -0.4302,0.50251 -0.4921,0.58138 -1.8748,1.65847 -2.6136,2.03608 -0.073,0.0374 -0.2351,0.10446 -0.3598,0.14895 -0.1247,0.0444 -0.4047,0.16379 -0.6222,0.26513 -0.5566,0.2594 -1.0225,0.38382 -1.9214,0.51311 -0.6674,0.0962 -0.8193,0.10767 -1.3444,0.10309 -0.3256,-10e-4 -0.6977,-0.0164 -0.8264,-0.0306 z m 3.0637,-12.30923 c 0.1112,-0.0385 0.172,-0.0844 0.2316,-0.1748 0.1447,-0.21902 0.089,-0.55873 -0.2832,-1.72616 -0.1322,-0.41536 -0.1855,-0.6905 -0.1598,-0.82675 0.02,-0.10451 0.1316,-0.23579 0.2542,-0.29832 0.1388,-0.0709 0.8944,-0.25611 1.1728,-0.28739 0.4657,-0.0524 0.78,-0.16488 0.9932,-0.35572 0.1473,-0.13177 0.073,-0.3864 -0.188,-0.65062 -0.1617,-0.16315 -0.9941,-0.81192 -1.0826,-0.84352 -0.026,-0.009 -0.2022,-0.0872 -0.3914,-0.17282 -0.7661,-0.34703 -1.0926,-0.43402 -1.7189,-0.45753 -0.3895,-0.0146 -0.5011,-0.005 -1.016,0.0807 -0.6643,0.11135 -1.0656,0.20856 -1.4792,0.35846 -0.1602,0.0581 -0.403,0.13607 -0.5393,0.17344 -0.1364,0.0372 -0.389,0.12195 -0.5616,0.18793 -0.1725,0.0659 -0.4489,0.16255 -0.6143,0.21466 -0.4125,0.12986 -0.9983,0.36174 -1.1436,0.4526 -0.066,0.0412 -0.2234,0.12763 -0.3499,0.19176 -0.6503,0.32985 -1.0482,0.693 -1.2439,1.13535 -0.1093,0.24669 -0.1796,0.59072 -0.1541,0.75166 0.032,0.21307 0.1275,0.53349 0.1944,0.66454 0.2871,0.56202 1.4349,1.08038 2.8181,1.27251 0.7746,0.10762 1.254,0.14885 2.8913,0.24833 0.4817,0.029 1.0375,0.0722 1.235,0.0953 0.44,0.0514 0.9319,0.0375 1.1352,-0.0335 z"
         id="path1091" />
    </g>
    <g
       id="g454"
       transform="matrix(1,0,-0.01745374,1,7.4596878,0)">
      <path
         style="fill:#000000;stroke:#ffffff;stroke-width:2.37049;stroke-miterlimit:4;stroke-dasharray:none;stroke-opacity:1;paint-order:stroke fill markers"
         d="m 3249.9183,424.86251 c -0.1648,-0.0534 -0.3182,-0.2954 -0.3219,-0.50741 0,-0.20962 0.057,-0.35658 0.1994,-0.4874 0.2098,-0.19192 0.3509,-0.23721 0.8095,-0.25985 l 0.4118,-0.0203 0.085,0.0827 c 0.078,0.0764 0.085,0.0988 0.076,0.29324 -0.01,0.17684 -0.027,0.23931 -0.1197,0.39082 -0.1257,0.20409 -0.2704,0.30688 -0.5988,0.42534 -0.2942,0.10614 -0.4138,0.12443 -0.542,0.0829 z"
         id="path1125" />
      <path
         style="fill:#000000;stroke:#ffffff;stroke-width:2.37049;stroke-miterlimit:4;stroke-dasharray:none;stroke-opacity:1;paint-order:stroke fill markers"
         d="m 3250.2493,431.61552 c -0.2676,-0.14706 -0.4186,-1.04198 -0.2228,-1.32133 0.04,-0.0567 0.053,-0.0552 0.3405,0.0371 0.1645,0.0528 0.3241,0.0956 0.3546,0.0951 0.1224,-0.002 0.3286,0.12882 0.445,0.28262 0.1003,0.13208 0.1201,0.1839 0.1237,0.31795 0,0.20954 -0.1277,0.45038 -0.2986,0.53923 -0.1614,0.0839 -0.6237,0.11461 -0.7424,0.0494 z"
         id="path1117" />
      <path
         style="fill:#000000;stroke:#ffffff;stroke-width:2.37049;stroke-miterlimit:4;stroke-dasharray:none;stroke-opacity:1;paint-order:stroke fill markers"
         d="m 3256.9989,431.71546 c -0.012,-0.0279 -0.021,-0.12854 -0.023,-0.22364 0,-0.0951 -0.019,-0.30244 -0.038,-0.46078 -0.1051,-0.86108 -0.1147,-1.06711 -0.082,-1.7499 0.038,-0.76135 0.048,-2.3619 0.026,-4.02715 -0.011,-0.61404 0,-1.15564 0.01,-1.20343 0.033,-0.12241 0.098,-0.10921 0.1743,0.0353 0.097,0.18432 0.1126,0.18856 0.8465,0.2377 0.1965,0.0132 0.4257,0.0455 0.5093,0.0717 l 0.152,0.0478 v 0.16259 c 0,0.0894 0.036,1.4644 0.066,3.05566 0.062,2.79473 0.067,2.90213 0.1332,3.15928 0.079,0.30359 0.09,0.44127 0.037,0.49641 -0.058,0.0601 -0.2004,0.0481 -0.3628,-0.0307 -0.3139,-0.15221 -1.0456,-0.23919 -1.2192,-0.14494 -0.1126,0.0611 -0.1401,0.12283 -0.1137,0.25502 0.038,0.19337 -0.059,0.4616 -0.1166,0.31902 z"
         id="path1115" />
      <path
         style="fill:#000000;stroke:#ffffff;stroke-width:2.37049;stroke-miterlimit:4;stroke-dasharray:none;stroke-opacity:1;paint-order:stroke fill markers"
         d="m 3264.9219,431.70359 c -0.198,-0.0183 -0.3621,-0.0348 -0.3647,-0.0367 -0.034,-0.0262 -0.1192,-0.31134 -0.1438,-0.48447 -0.017,-0.12307 -0.069,-1.47596 -0.1145,-3.00641 -0.046,-1.53045 -0.102,-3.09239 -0.1256,-3.47097 -0.039,-0.61128 -0.038,-0.69455 0.01,-0.74398 0.064,-0.0732 0.2761,-0.12906 0.5068,-0.13309 0.1648,-0.003 0.2073,0.0107 0.3757,0.11959 0.1186,0.0767 0.21,0.16345 0.2434,0.23112 0.1082,0.2196 0.1822,0.88485 0.2268,2.04112 0.024,0.60517 0.049,1.21344 0.058,1.35172 0.1201,2.06634 0.1497,3.07493 0.104,3.55065 -0.03,0.31052 -0.1061,0.53118 -0.2024,0.58518 -0.072,0.0407 -0.087,0.0406 -0.568,-0.004 z"
         id="path1113" />
      <path
         style="fill:#000000;stroke:#ffffff;stroke-width:2.37049;stroke-miterlimit:4;stroke-dasharray:none;stroke-opacity:1;paint-order:stroke fill markers"
         d="m 3289.0313,431.16224 c -0.7416,-0.76385 -0.9106,-1.12419 -1.074,-2.29078 -0.064,-0.45562 -0.2197,-3.6799 -0.1856,-3.84022 0.03,-0.13616 0.1548,-0.18836 0.4891,-0.20296 0.3897,-0.0172 0.7455,0.014 1.2022,0.10462 0.4985,0.0989 0.6446,0.14604 0.7563,0.24399 0.2071,0.18125 0.2088,0.19216 0.3509,2.10075 0.076,1.00911 0.016,1.80542 -0.2162,2.68927 -0.1341,0.52084 -0.223,0.75083 -0.3837,0.99339 -0.1423,0.21459 -0.1949,0.25186 -0.4491,0.3187 -0.2918,0.0766 -0.3051,0.0736 -0.4899,-0.11676 z"
         id="path1111" />
      <path
         style="fill:#000000;stroke:#ffffff;stroke-width:2.37049;stroke-miterlimit:4;stroke-dasharray:none;stroke-opacity:1;paint-order:stroke fill markers"
         d="m 3231.2597,434.21283 c -0.2633,-0.0544 -1.014,-0.42948 -1.2601,-0.62938 -0.2614,-0.21264 -0.3936,-0.42259 -0.6697,-1.06429 -0.3658,-0.84872 -0.5133,-1.52497 -0.5654,-2.58959 -0.03,-0.56982 -0.016,-0.93384 0.056,-1.5125 0.026,-0.2027 0.052,-0.56234 0.063,-0.79962 0.07,-1.64229 0.1125,-2.08454 0.2705,-2.86495 0.061,-0.29672 0.1536,-0.80294 0.2073,-1.12496 0.1103,-0.65629 0.2325,-1.08874 0.4626,-1.63266 0.4101,-0.97001 0.6523,-1.30328 0.9807,-1.34944 0.1957,-0.026 0.5421,0.0126 0.9313,0.10757 0.1618,0.0394 0.4606,0.0899 0.6643,0.11182 0.6234,0.0672 1.0799,0.19503 1.2038,0.33689 0.05,0.0575 0.083,0.18183 0.1575,0.56866 0.1152,0.60571 0.2156,0.96907 0.5588,1.98607 0.146,0.43368 0.3207,0.95942 0.3877,1.16836 0.069,0.20888 0.1577,0.44635 0.2022,0.52745 0.1037,0.19099 0.4181,0.51218 0.5448,0.55707 0.053,0.0195 0.3044,0.05 0.5557,0.0683 0.4288,0.0312 0.489,0.0281 0.9967,-0.0532 l 0.5404,-0.0866 0.5763,-0.3421 c 0.4372,-0.25955 0.6507,-0.36709 0.8844,-0.44563 0.7279,-0.24445 1.1822,-0.39324 1.6216,-0.53105 1.2041,-0.37752 1.6134,-0.52926 2.1758,-0.80653 0.6775,-0.33404 0.8634,-0.38053 0.9577,-0.23956 0.081,0.12482 0.1503,0.63774 0.137,1.04475 -0.014,0.31107 0,0.38961 0.133,1.08873 0.092,0.48229 0.1745,1.01957 0.226,1.49282 0.061,0.59241 0.098,0.80635 0.1772,1.07515 0.2177,0.7598 0.2826,1.29821 0.2022,1.6435 -0.035,0.14743 -0.08,0.15677 -0.143,0.03 -0.057,-0.11823 -0.1283,-0.18449 -0.5084,-0.47776 -0.4457,-0.34414 -0.6465,-0.44204 -1.3675,-0.6672 -0.3425,-0.10686 -0.7203,-0.23464 -0.8401,-0.2839 -0.3394,-0.13965 -0.8867,-0.33477 -1.2647,-0.45115 -0.6569,-0.20206 -0.7422,-0.23097 -0.9432,-0.31954 -0.5373,-0.23676 -0.9099,-0.36843 -1.2708,-0.44928 -0.503,-0.11258 -0.6482,-0.1636 -1.0048,-0.35282 -0.4016,-0.21322 -0.6287,-0.28208 -1.0552,-0.32062 -0.321,-0.0289 -0.4371,-0.0237 -0.91,0.0408 -0.6115,0.0832 -0.7058,0.12221 -0.9189,0.37872 -0.2157,0.25928 -0.5705,1.19803 -0.8824,2.33375 -0.025,0.0999 -0.1279,0.40025 -0.2234,0.66738 -0.2165,0.60626 -0.2382,0.77769 -0.1667,1.3264 l 0.059,0.42172 0.1412,0.2011 c 0.077,0.11068 0.2147,0.30229 0.3045,0.426 0.088,0.12382 0.1686,0.2629 0.1753,0.30931 0,0.10925 -0.1369,0.42381 -0.2486,0.51579 -0.045,0.0389 -0.2024,0.11799 -0.3444,0.17537 -0.142,0.0576 -0.4362,0.22159 -0.6543,0.365 -0.5802,0.38183 -0.9444,0.50033 -1.3074,0.42538 z"
         id="path1109" />
      <path
         style="fill:#000000;stroke:#ffffff;stroke-width:2.37049;stroke-miterlimit:4;stroke-dasharray:none;stroke-opacity:1;paint-order:stroke fill markers"
         d="m 3276.828,436.02428 c -0.1525,-0.0712 -0.181,-0.16136 -0.145,-0.45909 0.045,-0.3638 0,-0.94083 -0.1084,-1.33101 -0.048,-0.17492 -0.097,-0.39463 -0.111,-0.48826 -0.024,-0.16109 -0.021,-0.17658 0.074,-0.28918 0.055,-0.0655 0.1537,-0.1488 0.2207,-0.18527 0.1256,-0.0684 0.5077,-0.13244 0.8486,-0.1421 0.2642,-0.008 0.416,-0.06 0.4575,-0.15831 0.028,-0.0639 0.019,-0.14743 -0.03,-0.39849 -0.1445,-0.70872 -0.166,-0.84253 -0.2256,-1.41495 -0.034,-0.32797 -0.089,-0.80093 -0.1207,-1.05107 -0.032,-0.25014 -0.084,-0.66653 -0.1166,-0.92532 -0.1,-0.80251 -0.1478,-1.00277 -0.2474,-1.03851 -0.07,-0.0249 -0.2012,0.14007 -0.2699,0.33823 -0.029,0.0813 -0.1044,0.26241 -0.1699,0.40244 -0.1181,0.25273 -0.1754,0.4172 -0.4186,1.20148 -0.069,0.22427 -0.1669,0.48297 -0.2162,0.5749 -0.1577,0.29399 -0.2337,0.57389 -0.3768,1.38843 l -0.1399,0.79624 0.016,0.91211 c 0.014,0.51407 -0.01,1.04432 -0.017,1.21512 -0.028,0.26464 -0.025,0.32813 0.024,0.50052 0.086,0.30933 0.048,0.3184 -0.9295,0.22377 -0.7597,-0.0735 -0.9112,-0.0757 -2.0191,-0.0305 -0.3385,0.0143 -0.7902,0.0128 -1.0165,-0.004 -0.2864,-0.0208 -0.9966,-0.0135 -2.3919,0.0247 -1.1683,0.0316 -2.295,0.0461 -2.7392,0.0353 -0.8564,-0.0213 -1.1192,0.007 -1.6494,0.17365 -0.5919,0.18675 -1.0645,0.21375 -1.9211,0.10982 -0.6293,-0.0763 -1.1381,-0.0969 -2.4888,-0.10048 -1.2105,-0.003 -1.7214,-0.0347 -2.0227,-0.12462 -0.1575,-0.0471 -0.3236,-0.1912 -0.379,-0.32899 -0.052,-0.13045 -0.053,-0.49224 0.01,-0.66947 0.036,-0.11819 0.045,-0.31434 0.039,-0.81614 0,-0.6282 0.017,-0.92113 0.082,-1.05357 0.016,-0.0327 0.075,-0.0763 0.128,-0.0967 0.1381,-0.0522 0.569,-0.0563 0.7933,-0.008 0.1038,0.0225 0.3046,0.0386 0.4462,0.0358 0.2375,-0.005 0.2645,-0.0124 0.3514,-0.0941 0.081,-0.0756 0.098,-0.12095 0.1154,-0.30212 0.012,-0.11723 -0.034,-2.06285 -0.1051,-4.32349 -0.069,-2.26071 -0.122,-4.30263 -0.1207,-4.53756 0.01,-0.37941 0,-0.44307 -0.062,-0.5685 -0.057,-0.12229 -0.088,-0.14771 -0.2175,-0.18899 -0.1868,-0.0589 -0.384,-0.0562 -0.5722,0.008 -0.2861,0.0978 -0.4081,0.13154 -0.4234,0.11699 -0.05,-0.0477 -0.131,-0.55606 -0.1669,-1.0449 -0.072,-0.98801 -0.1513,-1.54325 -0.2326,-1.63698 -0.019,-0.0218 -0.074,-0.0387 -0.1221,-0.0377 -0.048,0.001 -0.1582,-0.0123 -0.2447,-0.0303 -0.1887,-0.0389 -0.3214,0.006 -0.3728,0.12738 -0.035,0.081 -0.04,0.13554 -0.08,0.80097 -0.025,0.43474 -0.1265,1.16025 -0.1969,1.4286 -0.025,0.095 -0.078,0.20588 -0.1199,0.24655 -0.097,0.0961 -0.2489,0.0837 -0.7306,-0.0601 -0.2507,-0.0747 -0.3964,-0.10159 -0.5012,-0.0923 -0.1375,0.0124 -0.1544,0.0236 -0.2423,0.16321 -0.1433,0.2275 -0.1622,0.44159 -0.1454,1.64243 0,0.58451 0,1.07286 -0.01,1.08546 -0.01,0.0126 0.02,1.50873 0.057,3.32482 0.054,2.61134 0.082,3.32934 0.112,3.43319 0.1193,0.36397 0.5435,0.56825 0.9527,0.45885 0.1242,-0.0331 0.1789,-0.0695 0.2522,-0.16746 0.1106,-0.14788 0.1802,-0.15921 0.2534,-0.0413 0.1363,0.21958 0.1876,0.41174 0.249,0.93234 0.1186,1.00859 0.1424,1.19031 0.2038,1.57288 0.055,0.34835 0.057,0.38899 0.014,0.43466 -0.083,0.0867 -0.2694,0.11221 -0.946,0.12853 -0.4637,0.0116 -0.7384,0.0326 -0.9363,0.073 -0.1868,0.0381 -0.6132,0.0741 -1.2796,0.10844 -0.8035,0.0411 -1.0631,0.0655 -1.3229,0.12386 -0.7138,0.16044 -1.2472,0.18864 -1.4911,0.0788 -0.2073,-0.0933 -0.3871,-0.54893 -0.4301,-1.09036 -0.036,-0.43514 -0.1079,-0.77137 -0.2299,-1.06022 -0.053,-0.12713 -0.099,-0.27096 -0.1001,-0.31962 -8e-4,-0.11212 0.077,-0.1536 0.3969,-0.20599 0.3265,-0.0534 0.5885,-0.12368 0.8359,-0.22395 0.4776,-0.19339 0.5254,-0.34593 0.5141,-1.63841 0,-0.80463 0.01,-1.0501 0.072,-1.54104 0.061,-0.4518 0.01,-0.67138 -0.1944,-0.79794 -0.076,-0.0479 -0.2009,-0.0541 -1.0583,-0.053 -0.5345,8.7e-4 -1.1972,-0.0165 -1.473,-0.0385 -0.6454,-0.051 -1.14,-0.0264 -1.2313,0.0609 -0.1408,0.13484 -0.2391,0.34057 -0.2717,0.56898 -0.033,0.23472 -0.01,0.75305 0.059,1.02752 0.017,0.0773 0.038,0.37425 0.045,0.65961 0.022,0.93362 0.1092,1.27559 0.3476,1.42617 0.064,0.0405 0.2349,0.11956 0.3793,0.17583 0.2765,0.10776 0.3453,0.15334 0.4578,0.30403 0.065,0.0875 0.069,0.12986 0.088,0.75297 0.014,0.58606 0.026,0.68663 0.093,0.89445 0.1012,0.31663 0.1478,0.53195 0.1293,0.59648 -0.02,0.0672 -0.2162,0.14836 -0.4794,0.19781 -0.3246,0.061 -1.4274,0.12633 -3.1386,0.18576 -0.8765,0.0305 -1.7764,0.0686 -1.9995,0.0848 -0.482,0.0349 -0.6164,0.006 -0.7298,-0.15453 -0.087,-0.12559 -0.099,-0.30437 -0.041,-0.67866 0.047,-0.30144 0.039,-0.83215 -0.02,-1.38649 -0.055,-0.51449 -0.028,-0.66073 0.148,-0.84152 0.1367,-0.14022 0.1435,-0.14112 0.535,-0.0704 0.1036,0.0187 0.4136,0.0308 0.6888,0.0267 l 0.5001,-0.008 0.07,-0.14327 0.07,-0.14326 -0.091,-3.01826 c -0.051,-1.66002 -0.1172,-3.768 -0.1494,-4.68437 -0.057,-1.60729 -0.057,-1.6776 0,-1.99135 0.064,-0.35765 0.042,-0.52815 -0.077,-0.62648 -0.1305,-0.10703 -0.5205,-0.20967 -0.9088,-0.23923 -0.4453,-0.0338 -0.5527,-0.0773 -0.6575,-0.26521 -0.1024,-0.18423 -0.097,-0.33617 0.026,-0.70814 0.1,-0.30377 0.1046,-0.34245 0.1164,-0.91528 0.01,-0.32897 0.022,-0.64079 0.032,-0.69295 0.03,-0.14381 0.1206,-0.26236 0.2323,-0.29949 0.287,-0.0954 0.5136,-0.084 1.025,0.0518 0.4662,0.1238 0.8665,0.17907 2.0241,0.27938 0.1723,0.0149 0.4053,0.044 0.5177,0.0647 0.3721,0.0683 0.9186,0.11796 1.4615,0.13265 0.5766,0.0156 0.6911,0.0452 0.7643,0.19676 0.087,0.17972 0.035,0.53497 -0.1501,1.03526 -0.082,0.22212 -0.082,0.22274 -0.058,0.88239 0.029,0.71889 0.019,0.77126 -0.1381,0.85786 -0.1051,0.058 -0.2344,0.0461 -0.6062,-0.0554 -0.3191,-0.0872 -0.478,-0.0861 -0.5861,0.004 -0.1747,0.14538 -0.1824,0.19695 -0.1576,1.0551 0.027,1.10508 0.103,2.0215 0.1702,2.1713 0.062,0.14275 0.1608,0.24769 0.2879,0.31026 0.077,0.0381 0.1454,0.04 0.3912,0.011 0.5421,-0.0639 1.5125,-0.0715 1.8462,-0.0145 0.164,0.0279 0.425,0.0499 0.5798,0.0487 0.5966,-0.004 0.7157,-0.20623 0.8556,-1.44785 0.03,-0.26897 0.09,-0.7348 0.1353,-1.03517 0.094,-0.63397 0.1165,-1.27356 0.05,-1.38901 -0.094,-0.16129 -0.2008,-0.20327 -0.4855,-0.18841 -0.2398,0.0128 -0.2649,0.009 -0.2996,-0.053 -0.062,-0.11173 -0.037,-0.83301 0.046,-1.25379 0.049,-0.25104 0.077,-0.53864 0.09,-0.92931 0.022,-0.67973 0.037,-0.72001 0.2927,-0.74134 0.1262,-0.009 0.2502,0.0151 0.5759,0.11962 0.4367,0.13999 0.7577,0.20166 1.173,0.22529 0.1377,0.009 0.5119,0.0555 0.8313,0.10596 0.5769,0.0911 0.8036,0.11732 1.4511,0.16784 0.367,0.0286 0.943,0.12805 1.3006,0.22443 0.2695,0.0727 0.381,0.0563 0.5836,-0.086 l 0.1443,-0.10135 0.8961,-0.0632 c 0.4927,-0.0347 1.0292,-0.0872 1.1918,-0.11645 0.1627,-0.0293 0.5066,-0.0675 0.7642,-0.0849 0.2576,-0.0174 0.7351,-0.0586 1.0611,-0.0914 1.5689,-0.1585 2.0464,-0.19285 2.1334,-0.15346 l 0.084,0.0381 0.022,0.89572 c 0.02,0.82845 0.032,0.91439 0.1,1.14552 0.1092,0.35852 0.1358,0.61874 0.072,0.71938 -0.075,0.12181 -0.2245,0.14728 -0.9232,0.15734 -0.5732,0.008 -0.6496,0.0155 -0.7228,0.0681 -0.2131,0.15329 -0.2547,0.47561 -0.2466,1.90367 0,1.10558 0.065,2.24208 0.1578,3.05999 0.023,0.19844 0.074,1.53938 0.1168,2.97981 0.076,2.60906 0.076,2.6194 0.1446,2.72595 0.077,0.11962 0.086,0.1227 0.5034,0.15906 0.3659,0.0319 1.0163,0.17835 1.1556,0.26011 l 0.1032,0.0605 0.012,0.30398 c 0.014,0.58317 0.075,1.09564 0.1329,1.18025 0.074,0.10926 0.1609,0.0984 0.2159,-0.0273 0.2078,-0.47352 0.2411,-0.86561 0.1123,-1.32534 -0.085,-0.30469 -0.073,-0.42013 0.059,-0.55897 0.1736,-0.1815 0.346,-0.20922 0.6817,-0.10968 0.2548,0.0755 0.6186,0.0995 0.7109,0.0468 0.096,-0.0546 0.242,-0.27842 0.2772,-0.42412 0.02,-0.0792 0.015,-0.70121 -0.016,-1.74887 -0.096,-3.50288 -0.1808,-6.98982 -0.1798,-7.35468 0.01,-0.35263 0,-0.3902 -0.064,-0.4704 -0.1139,-0.14608 -0.2519,-0.20179 -0.5394,-0.21771 -0.1447,-0.007 -0.2801,-0.0308 -0.301,-0.0509 -0.053,-0.0506 -0.1007,-0.76084 -0.078,-1.16648 0.012,-0.22266 0.01,-0.41791 -0.025,-0.59718 -0.023,-0.14652 -0.05,-0.45987 -0.055,-0.69638 -0.014,-0.48934 0.01,-0.55438 0.2342,-0.67662 0.1044,-0.0567 0.1786,-0.0667 0.5279,-0.0719 0.2236,-0.004 0.5519,0.0139 0.7295,0.0382 0.1778,0.0244 0.643,0.0571 1.034,0.0725 0.3908,0.0155 0.8023,0.0414 0.9146,0.0576 0.1122,0.0161 0.5138,0.0327 0.8922,0.0369 0.7506,0.008 0.8833,0.0347 1.0513,0.20972 l 0.078,0.0818 0.023,1.33879 c 0.019,0.7362 0.02,1.35343 0,1.37146 -0.012,0.0197 -0.084,0.0268 -0.1807,0.0176 -0.1393,-0.013 -0.1773,-0.003 -0.2752,0.0668 -0.3016,0.21711 -0.2587,0.52825 0.1575,1.14087 0.074,0.10941 0.1657,0.2904 0.203,0.40216 0.036,0.11177 0.1288,0.33706 0.2035,0.5007 0.076,0.16362 0.224,0.52121 0.3317,0.79464 0.1078,0.27343 0.2763,0.63213 0.3745,0.79709 0.3111,0.52255 0.4726,0.89362 0.6824,1.56758 0.1484,0.47711 0.2694,0.69882 0.4983,0.91301 0.1014,0.0949 0.163,0.12943 0.2149,0.12061 0.088,-0.0149 0.211,-0.19628 0.3113,-0.45867 0.084,-0.22184 0.3642,-1.32048 0.4465,-1.75712 0.031,-0.16515 0.084,-0.3505 0.1155,-0.41184 0.033,-0.0613 0.1398,-0.28606 0.2387,-0.49934 0.1447,-0.31219 0.1871,-0.44201 0.2176,-0.66605 0.044,-0.32149 0.1285,-0.67002 0.4975,-2.04828 0.1199,-0.44794 0.1075,-0.54736 -0.1,-0.78856 -0.059,-0.0696 -0.1644,-0.2232 -0.2333,-0.34141 l -0.1249,-0.21492 -0.034,-0.61272 c -0.038,-0.68676 -0.064,-0.78627 -0.2453,-0.98446 -0.1394,-0.15165 -0.1585,-0.2625 -0.062,-0.36368 0.1085,-0.11459 0.2623,-0.16156 0.7209,-0.22039 0.2433,-0.0312 0.5343,-0.0729 0.6466,-0.0926 0.3497,-0.0615 0.9052,-0.11645 1.6913,-0.16724 0.4162,-0.0269 0.939,-0.0759 1.1619,-0.10892 0.5813,-0.0861 1.3588,-0.10993 1.5665,-0.0484 0.2493,0.0745 0.347,0.13267 0.4251,0.25307 0.081,0.12624 0.083,0.29799 0,0.69109 -0.069,0.3437 -0.051,0.56227 0.07,0.89869 0.1676,0.4645 0.1561,0.87523 -0.028,1.03757 -0.04,0.0351 -0.1609,0.0491 -0.509,0.0584 -0.4179,0.0105 -0.4666,0.0184 -0.5822,0.0879 -0.2632,0.15838 -0.2852,0.32689 -0.1977,1.51417 0.06,0.80534 0.096,1.11975 0.2007,1.74609 0.038,0.22404 0.082,0.56984 0.098,0.76846 0.037,0.44116 0.1484,1.17506 0.2427,1.58499 0.083,0.36338 0.1541,0.84803 0.2436,1.67531 0.036,0.33654 0.099,0.83766 0.1371,1.11359 0.039,0.27594 0.083,0.62172 0.097,0.76848 0.068,0.6995 0.1414,1.20094 0.1878,1.28598 0.027,0.0506 0.086,0.11485 0.1314,0.14279 0.076,0.0478 0.1069,0.0461 0.5226,-0.0287 0.2426,-0.0437 0.5044,-0.0806 0.5818,-0.0817 0.2586,-0.005 0.536,0.17446 0.5402,0.34748 0,0.038 0.042,0.24391 0.093,0.45759 0.1073,0.46158 0.1628,0.93151 0.1463,1.23952 -0.01,0.16713 0,0.26516 0.047,0.38945 0.058,0.15987 0.058,0.16766 0,0.20942 -0.031,0.0238 -0.092,0.0445 -0.136,0.046 -0.3561,0.0114 -0.8671,0.0554 -1.219,0.10472 -0.5019,0.0703 -1.0785,0.12794 -1.9213,0.19204 -0.7374,0.0561 -1.2342,0.12619 -1.7428,0.24602 -0.4327,0.10202 -0.8216,0.1233 -0.9718,0.0533 z m -5.7306,-3.11584 c 0.222,-0.167 0.2866,-0.32445 0.2779,-0.67797 -0.014,-0.42928 -0.077,-0.62639 -0.5477,-1.62591 -0.081,-0.17109 -0.1727,-0.35997 -0.2047,-0.41975 -0.1038,-0.19357 -0.4754,-0.77231 -0.528,-0.82266 -0.091,-0.0873 -0.1571,0.0298 -0.1869,0.33139 -0.07,0.72641 -0.01,2.22234 0.112,2.70613 0.1125,0.44658 0.3682,0.66838 0.7358,0.63802 0.157,-0.0127 0.2162,-0.0354 0.341,-0.12923 z"
         id="path1089" />
      <path
         style="fill:#000000;stroke:#ffffff;stroke-width:2.37049;stroke-miterlimit:4;stroke-dasharray:none;stroke-opacity:1;paint-order:stroke fill markers"
         d="m 3288.934,436.11047 c -0.3578,-0.0252 -0.7673,-0.12076 -1.2538,-0.2928 -0.4706,-0.16645 -0.5919,-0.22497 -1.0012,-0.48366 -0.3149,-0.19882 -0.5788,-0.39741 -0.8142,-0.61221 -0.5716,-0.52155 -0.823,-0.92988 -1.2167,-1.97503 -0.334,-0.88707 -0.3759,-1.01886 -0.4441,-1.402 -0.036,-0.20369 -0.1103,-0.58265 -0.1648,-0.84217 -0.055,-0.25951 -0.1237,-0.72403 -0.1535,-1.03226 -0.1407,-1.4345 -0.3173,-4.88362 -0.3156,-6.15312 0.01,-0.52655 -0.015,-0.57749 -0.1937,-0.68833 -0.079,-0.0484 -0.1727,-0.0666 -0.3783,-0.0734 -0.3241,-0.0105 -0.455,-0.0396 -0.6102,-0.13501 -0.1537,-0.0947 -0.25,-0.25952 -0.2861,-0.49064 -0.033,-0.20613 -0.013,-0.30561 0.1717,-0.61823 0.147,-0.26031 0.1531,-0.31676 0.091,-0.85077 -0.067,-0.58354 -0.059,-0.73749 0.05,-0.86191 0.1171,-0.13438 0.1843,-0.12854 1.014,0.0883 0.1824,0.0476 0.4809,0.11246 0.6635,0.14398 0.1825,0.0314 0.4668,0.0823 0.6316,0.11286 0.1649,0.0306 0.6044,0.0981 0.9767,0.15003 0.3724,0.0519 0.8401,0.12223 1.0395,0.15618 0.446,0.0759 0.6862,0.10343 1.2111,0.13885 0.3819,0.0258 1.0214,0.16654 1.026,0.2259 9e-4,0.0116 -0.046,0.0394 -0.1051,0.0618 -0.1279,0.0489 -0.248,0.20806 -0.3841,0.50983 -0.08,0.17594 -0.1079,0.29699 -0.1337,0.5695 -0.1064,1.12432 -0.1791,1.48304 -0.3125,1.54084 -0.068,0.0292 -0.5502,-0.009 -1.047,-0.0825 -0.3527,-0.0523 -0.5796,0.081 -0.6574,0.38621 -0.059,0.23074 -0.05,1.6885 0.018,3.21544 0.057,1.30256 0.073,1.42754 0.3476,2.98065 0.1523,0.86241 0.2054,1.02282 0.6085,1.83807 0.1968,0.39773 0.6476,1.02158 0.8374,1.15875 0.2776,0.20064 1.098,0.34841 1.6708,0.30096 0.3727,-0.0308 0.5065,-0.0765 0.775,-0.26382 0.5439,-0.37963 1.044,-1.37147 1.2176,-2.4143 0.259,-1.55658 0.3103,-3.50638 0.1242,-4.72552 -0.097,-0.63809 -0.148,-1.03092 -0.2071,-1.60733 -0.046,-0.4349 -0.064,-0.53347 -0.1311,-0.65358 -0.1191,-0.21428 -0.2203,-0.23355 -0.6995,-0.13324 -0.6235,0.13051 -0.9138,0.11406 -1.0807,-0.0612 l -0.092,-0.0962 -0.075,-0.7822 c -0.041,-0.43022 -0.09,-0.88067 -0.1112,-1.00096 -0.02,-0.12033 -0.042,-0.30244 -0.047,-0.40477 0,-0.12892 -0.027,-0.20321 -0.063,-0.24198 -0.034,-0.034 -0.043,-0.0675 -0.027,-0.0855 0.033,-0.0354 0.3244,-0.10985 0.9728,-0.2489 0.2643,-0.0566 0.718,-0.1623 1.0083,-0.23467 0.2901,-0.0723 0.7285,-0.16905 0.974,-0.21483 0.2454,-0.0457 0.5378,-0.10782 0.6497,-0.13765 0.3342,-0.0894 0.7431,-0.1677 1.0576,-0.2025 0.1628,-0.0179 0.4537,-0.0681 0.6465,-0.11126 0.1929,-0.0432 0.4026,-0.0764 0.4661,-0.074 0.1092,0.004 0.1165,0.0113 0.1305,0.12298 0.013,0.0649 -0.01,0.19537 -0.027,0.28935 -0.054,0.22549 -0.024,0.97424 0.053,1.21357 0.029,0.0935 0.1072,0.27332 0.1738,0.39956 0.095,0.17835 0.1236,0.26848 0.1296,0.40441 0,0.22925 -0.08,0.43781 -0.2297,0.52642 l -0.1088,0.0649 -0.2256,-0.0929 c -0.393,-0.16183 -0.4913,-0.0709 -0.5628,0.52061 -0.037,0.31616 -0.033,2.2847 0.01,3.87792 0.016,0.5967 0.023,1.29056 0.023,1.54176 -0.014,0.81991 -0.1004,2.13592 -0.1604,2.43125 -0.019,0.0961 -0.045,0.30264 -0.057,0.45901 -0.026,0.34659 -0.041,0.40652 -0.2271,0.89146 -0.08,0.21131 -0.1813,0.51323 -0.2233,0.67092 -0.073,0.27482 -0.336,0.89576 -0.4758,1.12374 -0.037,0.0598 -0.2195,0.30105 -0.4062,0.53619 -0.2697,0.33962 -0.4224,0.49654 -0.7426,0.76318 -0.2219,0.18461 -0.4813,0.37137 -0.5765,0.41501 -0.3862,0.17679 -1.1935,0.43567 -1.5104,0.48436 -0.3015,0.0463 -0.9822,0.0831 -1.2243,0.0661 z"
         id="path1087" />
      <path
         style="fill:#000000;stroke:#ffffff;stroke-width:2.37049;stroke-miterlimit:4;stroke-dasharray:none;stroke-opacity:1;paint-order:stroke fill markers"
         d="m 3231.7455,438.9053 c -0.3854,0.0184 -0.5892,0.006 -1.4487,-0.0871 -0.8613,-0.0932 -1.1108,-0.14567 -1.594,-0.3348 -0.6071,-0.23756 -0.7387,-0.31256 -1.2584,-0.71536 -0.8641,-0.67045 -1.2075,-1.03426 -1.5135,-1.6043 -0.097,-0.18705 -0.2968,-0.54511 -0.4367,-0.79623 -0.2639,-0.47352 -0.3101,-0.59135 -0.7016,-1.78835 -0.2464,-0.75329 -0.32,-1.05843 -0.4129,-1.70776 -0.1367,-0.9849 -0.2667,-2.8242 -0.2652,-3.93292 0,-1.24548 0.01,-1.53871 0.066,-1.88325 0.033,-0.1879 0.076,-0.53703 0.097,-0.776 0.092,-0.99359 0.2656,-1.98117 0.4869,-2.76929 0.071,-0.24625 0.1469,-0.55113 0.1731,-0.67777 0.077,-0.36561 0.252,-0.95393 0.4109,-1.37259 0.079,-0.21218 0.1979,-0.53603 0.2612,-0.71961 0.2745,-0.79831 1.0732,-2.05755 1.5925,-2.51049 0.2069,-0.1807 0.6004,-0.4923 0.7812,-0.61886 0.192,-0.13428 0.6914,-0.39128 0.8981,-0.46195 0.2019,-0.0692 1.5691,-0.25843 1.9047,-0.26372 0.4044,-0.006 1.2685,0.0352 1.6958,0.0815 0.423,0.0459 1.4087,0.24114 1.9372,0.38362 0.1895,0.051 0.4406,0.11885 0.5579,0.15056 0.804,0.21722 1.6447,0.59209 2.5788,1.14994 0.7746,0.4626 1.1725,0.79944 1.7425,1.47521 0.3663,0.43444 0.4983,0.53199 0.7676,0.56804 0.3868,0.0518 1.079,-0.20582 1.3098,-0.48739 0.057,-0.0683 0.118,-0.12642 0.1377,-0.12921 0.126,-0.0168 0.3776,0.25354 0.4433,0.47768 0.02,0.0756 0.069,0.19753 0.1048,0.27123 0.032,0.074 0.1142,0.34128 0.1766,0.59457 0.1277,0.52125 0.119,0.49331 0.3071,0.83031 0.1825,0.32481 0.2447,0.56481 0.2099,0.80991 -0.021,0.16012 -0.043,0.19364 -0.1282,0.24597 -0.1552,0.0925 -0.4086,0.18983 -0.7704,0.29614 -0.1803,0.053 -0.5538,0.17598 -0.8299,0.27341 -0.276,0.0974 -0.5633,0.19527 -0.6383,0.21746 -0.4659,0.13773 -1.2747,0.43471 -1.9666,0.72189 -0.2132,0.0886 -0.4493,0.17947 -0.5242,0.20205 -0.077,0.0223 -0.3224,0.13071 -0.5505,0.24036 -0.7338,0.35338 -1.0286,0.4225 -1.2379,0.29037 -0.1144,-0.0722 -0.1465,-0.15398 -0.3163,-0.80806 -0.06,-0.23604 -0.1819,-0.62636 -0.269,-0.86743 -0.084,-0.24134 -0.1847,-0.52602 -0.2178,-0.63311 -0.068,-0.21819 -0.09,-0.5756 -0.044,-0.62456 0.02,-0.0178 0.1127,-0.0692 0.2105,-0.11437 0.097,-0.0452 0.2521,-0.13593 0.3427,-0.20166 0.1736,-0.12604 0.3791,-0.39076 0.3674,-0.47352 0,-0.11532 -0.145,-0.22603 -0.511,-0.4427 -0.6955,-0.41174 -1.1487,-0.62889 -1.466,-0.70225 -0.1611,-0.0373 -0.4699,-0.12349 -0.6864,-0.19162 -0.369,-0.11621 -1.0075,-0.26311 -1.3733,-0.31591 -0.086,-0.013 -0.3834,-0.0379 -0.6551,-0.0558 -0.4374,-0.0288 -0.5492,-0.0245 -0.9794,0.0372 -0.7685,0.11093 -1.1264,0.29222 -1.4576,0.7392 -0.1977,0.26647 -0.3137,0.48013 -0.5022,0.925 -0.1851,0.43641 -0.4854,1.36588 -0.5443,1.68459 -0.028,0.13699 -0.076,0.38492 -0.1146,0.55134 -0.037,0.1664 -0.081,0.50913 -0.097,0.76163 -0.023,0.3557 -0.054,0.53993 -0.1341,0.81768 -0.128,0.43156 -0.1515,0.56848 -0.1836,1.06827 -0.011,0.21139 -0.041,0.56719 -0.062,0.79037 -0.045,0.49462 -0.041,0.83713 0.012,1.24871 0,0.17323 0.049,0.43331 0.05,0.58123 -0.01,0.14836 0.026,0.44551 0.035,0.66248 -0.01,0.21769 0.02,0.58684 0.029,0.82167 0.014,0.77291 0.078,1.49047 0.1393,1.9813 0.059,0.40995 0.094,0.55098 0.2256,0.93708 0.086,0.2498 0.1638,0.4963 0.1719,0.54757 0,0.12812 0.1941,0.60912 0.3408,0.93674 0.2777,0.61998 0.8991,1.04865 1.8685,1.28929 0.7149,0.17748 1.1596,0.19096 1.9305,0.0585 0.5886,-0.10109 0.6092,-0.10955 1.4342,-0.58655 1.0427,-0.6029 1.3334,-0.79928 2.0715,-1.3999 0.9985,-0.81258 1.2028,-1.07692 1.0712,-1.38694 -0.053,-0.13278 -0.3348,-0.37789 -0.5245,-0.46184 -0.1739,-0.0769 -1.1209,-0.27468 -1.4007,-0.29246 -0.1441,-0.009 -0.1945,-0.11926 -0.1666,-0.36419 0.022,-0.18239 0.3936,-1.43014 0.4787,-1.60209 0.022,-0.047 0.1072,-0.26598 0.1864,-0.48674 0.2561,-0.71446 0.3197,-0.82313 0.4957,-0.84784 0.1045,-0.0154 0.1801,0.0136 0.4331,0.16197 0.2524,0.14804 0.8965,0.42159 1.1898,0.50523 0.2168,0.0619 0.8818,0.27964 1.8054,0.59126 0.2733,0.0922 0.6403,0.22629 0.8155,0.29805 0.1752,0.0717 0.4524,0.16398 0.6158,0.20498 0.1635,0.041 0.4048,0.1265 0.5362,0.18999 0.1316,0.0636 0.3363,0.13738 0.4552,0.16424 0.2862,0.0648 0.7928,0.23814 0.9737,0.33346 0.101,0.0532 0.1613,0.11147 0.1976,0.19056 0.048,0.10347 0.044,0.13049 -0.013,0.28992 -0.033,0.0965 -0.1201,0.29079 -0.1877,0.43132 -0.071,0.14077 -0.174,0.43419 -0.2362,0.65258 -0.06,0.21824 -0.1403,0.49379 -0.1737,0.61204 -0.034,0.11829 -0.072,0.30931 -0.083,0.42446 -0.033,0.30574 -0.052,0.37834 -0.1568,0.4986 -0.135,0.15776 -0.2226,0.15681 -0.4861,-0.005 -0.123,-0.0755 -0.3559,-0.19471 -0.5172,-0.26479 -0.2796,-0.12124 -0.302,-0.12559 -0.4629,-0.0891 l -0.1691,0.0384 -0.3929,0.51522 c -0.2284,0.29951 -0.51,0.62588 -0.6728,0.77952 -0.1541,0.14538 -0.2967,0.29206 -0.3174,0.32597 -0.056,0.0955 -0.4865,0.51228 -1.0697,1.03947 -0.3992,0.3611 -0.6629,0.56848 -1.0646,0.8372 -0.2935,0.19644 -0.7024,0.47303 -0.9082,0.61459 -0.4287,0.29492 -0.7781,0.48273 -1.4025,0.75384 -0.9073,0.39404 -1.036,0.43309 -1.8388,0.55764 -0.3994,0.0621 -0.8462,0.11831 -0.9929,0.12503 z"
         id="path932" />
    </g>
  </g>
</svg>
