<?xml version="1.0" encoding="UTF-8" standalone="no"?>
<!-- Created with Inkscape (http://www.inkscape.org/) -->

<svg
   version="1.1"
   id="svg824"
   width="200.00529"
   height="27.000103"
   viewBox="0 0 200.00529 27.000103"
   sodipodi:docname="title.svg"
   inkscape:version="1.1.1 (3bf5ae0d25, 2021-09-20)"
   xmlns:inkscape="http://www.inkscape.org/namespaces/inkscape"
   xmlns:sodipodi="http://sodipodi.sourceforge.net/DTD/sodipodi-0.dtd"
   xmlns="http://www.w3.org/2000/svg"
   xmlns:svg="http://www.w3.org/2000/svg">
  <defs
     id="defs828" />
  <sodipodi:namedview
     id="namedview826"
     pagecolor="#ffffff"
     bordercolor="#666666"
     borderopacity="1.0"
     inkscape:pageshadow="2"
     inkscape:pageopacity="0.0"
     inkscape:pagecheckerboard="false"
     showgrid="false"
     inkscape:zoom="7.2407734"
     inkscape:cx="63.529125"
     inkscape:cy="-2.8311893"
     inkscape:window-width="5120"
     inkscape:window-height="1351"
     inkscape:window-x="-9"
     inkscape:window-y="-9"
     inkscape:window-maximized="1"
     inkscape:current-layer="g830"
     fit-margin-top="0"
     fit-margin-left="0"
     fit-margin-right="0"
     fit-margin-bottom="0" />
  <g
     inkscape:groupmode="layer"
     inkscape:label="Image"
     id="g830"
     transform="translate(-3098.5008,-414.62339)">
    <path
       style="fill:#000000;stroke:#ffffff;stroke-width:2.37049;stroke-miterlimit:4;stroke-dasharray:none;stroke-opacity:1;paint-order:stroke fill markers"
       d="m 3230.4072,440.41909 c -0.3842,-0.0356 -0.5843,-0.0761 -1.4225,-0.28789 -0.8399,-0.21216 -1.0799,-0.29886 -1.532,-0.5534 -0.568,-0.31973 -0.6881,-0.41233 -1.1463,-0.88351 -0.7626,-0.78419 -1.052,-1.19227 -1.2757,-1.79934 -0.073,-0.19894 -0.2181,-0.58111 -0.3217,-0.84925 -0.1953,-0.50564 -0.2247,-0.62873 -0.4458,-1.86858 -0.1391,-0.78026 -0.1697,-1.09268 -0.1712,-1.74862 0,-0.99442 0.1298,-2.83381 0.2822,-3.93173 0.1714,-1.23365 0.2223,-1.52259 0.3271,-1.85577 0.057,-0.18165 0.1491,-0.52135 0.2043,-0.7549 0.2295,-0.97111 0.5389,-1.92492 0.8675,-2.6746 0.1027,-0.23411 0.2224,-0.52529 0.266,-0.64707 0.126,-0.35145 0.3823,-0.90956 0.5978,-1.30204 0.1092,-0.19895 0.2707,-0.50327 0.3588,-0.67626 0.3831,-0.75233 1.3494,-1.88814 1.9264,-2.26442 0.2302,-0.15012 0.6632,-0.40395 0.8598,-0.50411 0.2087,-0.10626 0.7392,-0.29123 0.9536,-0.33248 0.2097,-0.0403 1.5898,-0.0376 1.9229,0.004 0.4013,0.0499 1.2513,0.21129 1.668,0.31669 0.4125,0.10435 1.3615,0.43485 1.865,0.6495 0.1805,0.077 0.4197,0.17902 0.5315,0.22674 0.7659,0.32703 1.5462,0.81523 2.3936,1.49765 0.7027,0.56591 1.0498,0.95483 1.5201,1.70335 0.3024,0.4812 0.4194,0.59616 0.6812,0.66934 0.3759,0.10506 1.0971,-0.0537 1.3648,-0.30035 0.065,-0.0598 0.1345,-0.10877 0.1546,-0.10877 0.127,0 0.3385,0.30362 0.3724,0.53472 0.012,0.0778 0.041,0.20524 0.065,0.28308 0.024,0.0779 0.066,0.35386 0.092,0.61335 0.055,0.53399 0.048,0.50503 0.1888,0.86499 0.1354,0.34705 0.1635,0.59337 0.095,0.83123 -0.045,0.1555 -0.067,0.18598 -0.1612,0.22573 -0.1665,0.07 -0.4309,0.13113 -0.8041,0.18605 -0.1859,0.0274 -0.5728,0.0972 -0.8598,0.15526 -0.287,0.058 -0.5851,0.11496 -0.6625,0.12649 -0.4805,0.0716 -1.3228,0.25307 -2.0479,0.44117 -0.2235,0.058 -0.4698,0.1152 -0.5471,0.12712 -0.077,0.0119 -0.3377,0.0846 -0.5785,0.16144 -0.776,0.2478 -1.0775,0.27523 -1.2664,0.11525 -0.1032,-0.0874 -0.1236,-0.17288 -0.2008,-0.84423 -0.028,-0.2422 -0.093,-0.64559 -0.1458,-0.89644 -0.052,-0.25084 -0.1096,-0.5466 -0.1274,-0.65725 -0.036,-0.22544 -0.01,-0.58259 0.047,-0.62437 0.02,-0.015 0.1212,-0.0528 0.2244,-0.0839 0.1031,-0.0311 0.2685,-0.0995 0.3674,-0.15199 0.1895,-0.10065 0.4298,-0.3342 0.4298,-0.41779 0,-0.11544 -0.1121,-0.244 -0.4444,-0.5095 -0.6314,-0.50453 -1.0501,-0.78263 -1.3541,-0.89945 -0.1543,-0.0593 -0.4482,-0.18768 -0.653,-0.2853 -0.3492,-0.1664 -0.9611,-0.40074 -1.316,-0.50395 -0.086,-0.025 -0.3744,-0.0909 -0.6409,-0.14639 -0.4294,-0.0894 -0.5405,-0.10074 -0.975,-0.0992 -0.7765,0.003 -1.1562,0.13261 -1.5465,0.52913 -0.2327,0.23638 -0.3773,0.43181 -0.626,0.8461 -0.2439,0.40642 -0.6707,1.28504 -0.7734,1.59247 -0.044,0.13197 -0.1298,0.37048 -0.1903,0.53001 -0.061,0.15954 -0.1512,0.49288 -0.2016,0.74077 -0.071,0.34916 -0.1265,0.52738 -0.2467,0.79104 -0.1867,0.40958 -0.2291,0.54188 -0.3305,1.03233 -0.043,0.2076 -0.1203,0.55589 -0.1719,0.77399 -0.1144,0.48337 -0.1587,0.8231 -0.1617,1.23824 0,0.17345 -0.014,0.43567 -0.028,0.58272 -0.014,0.14704 -0.042,0.44428 -0.062,0.66053 -0.02,0.21624 -0.058,0.58425 -0.084,0.8178 -0.086,0.7681 -0.135,1.48641 -0.135,1.98159 0,0.41423 0.014,0.55848 0.093,0.95934 0.051,0.2595 0.093,0.51427 0.094,0.56617 8e-4,0.12829 0.1074,0.63022 0.2071,0.97507 0.1887,0.65258 0.7443,1.16357 1.6709,1.53679 0.6833,0.27525 1.1217,0.35048 1.9036,0.32667 0.5968,-0.0182 0.6184,-0.0237 1.5019,-0.38127 1.1164,-0.45191 1.4315,-0.60592 2.246,-1.09798 1.102,-0.6657 1.341,-0.89905 1.2539,-1.22435 -0.037,-0.1391 -0.279,-0.42081 -0.4551,-0.53034 -0.1616,-0.10045 -1.0717,-0.428 -1.3463,-0.48454 -0.1415,-0.0291 -0.1761,-0.14519 -0.1144,-0.38385 0.046,-0.17764 0.5889,-1.36143 0.6971,-1.51986 0.03,-0.0433 0.143,-0.24849 0.2522,-0.45608 0.3531,-0.67186 0.4311,-0.77062 0.6088,-0.77062 0.1057,0 0.1765,0.0384 0.4064,0.22068 0.2293,0.18174 0.8291,0.54227 1.1079,0.66591 0.2062,0.0915 0.8344,0.39965 1.7056,0.83677 0.2578,0.12931 0.6025,0.3132 0.766,0.40864 0.1636,0.0954 0.4252,0.22535 0.5814,0.28871 0.1562,0.0634 0.3832,0.1816 0.5046,0.26276 0.1213,0.0812 0.3138,0.18285 0.4277,0.22597 0.2746,0.10399 0.752,0.34617 0.918,0.46576 0.093,0.0666 0.1443,0.13283 0.1691,0.2162 0.032,0.10903 0.028,0.13554 -0.053,0.28531 -0.049,0.0908 -0.1593,0.27126 -0.2459,0.40101 -0.087,0.12975 -0.2326,0.40576 -0.3246,0.61335 -0.092,0.2076 -0.2077,0.46945 -0.2572,0.5819 -0.05,0.11244 -0.1127,0.29645 -0.1404,0.4089 -0.073,0.29835 -0.106,0.36721 -0.2246,0.47195 -0.1556,0.13742 -0.2421,0.12429 -0.4807,-0.0729 -0.1112,-0.0919 -0.3251,-0.24231 -0.4752,-0.3342 -0.2599,-0.15896 -0.2815,-0.16637 -0.446,-0.15265 l -0.1729,0.0144 -0.4607,0.45554 c -0.2679,0.2648 -0.5923,0.54881 -0.7748,0.67831 -0.1727,0.12252 -0.3345,0.2479 -0.3595,0.27862 -0.071,0.0866 -0.5533,0.43958 -1.204,0.88048 -0.4457,0.30202 -0.7357,0.47068 -1.1709,0.68087 -0.3181,0.15367 -0.7613,0.37068 -0.9848,0.48224 -0.4656,0.23236 -0.8378,0.36972 -1.4937,0.5513 -0.9534,0.26395 -1.0863,0.28469 -1.8987,0.2963 -0.4041,0.006 -0.8543,-5.8e-4 -1.0005,-0.0142 z m 59.5922,-1.65947 c -0.3564,-0.0407 -0.7613,-0.15411 -1.2398,-0.34721 -0.463,-0.18682 -0.5815,-0.25058 -0.9793,-0.52687 -0.3058,-0.21237 -0.5609,-0.42228 -0.7867,-0.64714 -0.5482,-0.54599 -0.7816,-0.9649 -1.1293,-2.02623 -0.2951,-0.90079 -0.3311,-1.03428 -0.3826,-1.42004 -0.027,-0.20506 -0.085,-0.5869 -0.1279,-0.84855 -0.043,-0.26165 -0.092,-0.72874 -0.1083,-1.03798 -0.078,-1.43927 -0.104,-4.89281 -0.047,-6.16104 0.024,-0.52595 0.011,-0.57756 -0.1634,-0.69612 -0.076,-0.0518 -0.1697,-0.0741 -0.3747,-0.0898 -0.3233,-0.0247 -0.4529,-0.0594 -0.6037,-0.1615 -0.1495,-0.10131 -0.2384,-0.27017 -0.2645,-0.50265 -0.023,-0.20735 0.01,-0.30563 0.1985,-0.61015 0.1582,-0.25366 0.1667,-0.30979 0.128,-0.846 -0.042,-0.58592 -0.027,-0.73937 0.087,-0.85894 0.1229,-0.12913 0.1897,-0.12037 1.0091,0.13253 0.1802,0.0556 0.4756,0.13333 0.6566,0.17278 0.181,0.0394 0.4628,0.10258 0.6262,0.14031 0.1633,0.0377 0.5995,0.12435 0.9692,0.19249 0.3697,0.0681 0.834,0.15876 1.0317,0.20137 0.4422,0.0953 0.681,0.13327 1.2038,0.19155 0.3805,0.0424 1.0132,0.21093 1.0153,0.27044 4e-4,0.0116 -0.048,0.0374 -0.1077,0.0572 -0.13,0.0432 -0.2569,0.19704 -0.4061,0.49258 -0.087,0.17231 -0.1207,0.29201 -0.1583,0.56313 -0.1554,1.11861 -0.2437,1.47381 -0.3795,1.52575 -0.069,0.0262 -0.5492,-0.0328 -1.0424,-0.12809 -0.35,-0.0676 -0.5825,0.0557 -0.6736,0.35717 -0.069,0.22796 -0.1241,1.68469 -0.1218,3.21319 0,1.3038 0.011,1.42938 0.2173,2.99297 0.1145,0.86823 0.1605,1.0308 0.5278,1.86287 0.1792,0.40593 0.6024,1.04885 0.786,1.19417 0.2686,0.21256 1.0818,0.39597 1.6561,0.37355 0.3736,-0.0146 0.5093,-0.0543 0.7857,-0.22976 0.5599,-0.35556 1.1029,-1.32463 1.3218,-2.35889 0.3266,-1.54381 0.4629,-3.48952 0.3302,-4.71561 -0.069,-0.6417 -0.1029,-1.03639 -0.1368,-1.61483 -0.026,-0.43647 -0.041,-0.53576 -0.1025,-0.65868 -0.1096,-0.21927 -0.2098,-0.24293 -0.693,-0.16362 -0.6286,0.10318 -0.9178,0.0741 -1.0769,-0.10817 l -0.087,-0.10014 -0.04,-0.78469 c -0.022,-0.43158 -0.052,-0.88377 -0.068,-1.00487 -0.015,-0.12109 -0.029,-0.30399 -0.029,-0.40642 -7e-4,-0.12898 -0.017,-0.20416 -0.053,-0.24451 -0.032,-0.0355 -0.041,-0.0693 -0.023,-0.0865 0.035,-0.0339 0.3288,-0.0956 0.9826,-0.20624 0.2665,-0.0451 0.7244,-0.13082 1.0176,-0.19046 0.2931,-0.0596 0.7352,-0.13711 0.9825,-0.17214 0.2472,-0.035 0.542,-0.0842 0.6551,-0.10918 0.3377,-0.0747 0.7497,-0.13512 1.0654,-0.15617 0.1633,-0.0109 0.4562,-0.0482 0.6507,-0.083 0.1946,-0.0347 0.4056,-0.0588 0.469,-0.0535 0.1088,0.009 0.1158,0.0163 0.125,0.12855 0.01,0.0654 -0.012,0.19496 -0.039,0.28792 -0.064,0.22292 -0.067,0.97224 0,1.21472 0.024,0.0947 0.095,0.27774 0.1563,0.40676 0.087,0.18231 0.1117,0.27362 0.1117,0.40968 0,0.22932 -0.1,0.43387 -0.2523,0.51589 l -0.1116,0.0601 -0.2213,-0.10263 c -0.3857,-0.17883 -0.4878,-0.0923 -0.585,0.49557 -0.052,0.3142 -0.1331,2.28107 -0.1599,3.87463 -0.01,0.59684 -0.031,1.2904 -0.046,1.54124 -0.049,0.81855 -0.1934,2.12951 -0.2663,2.42195 -0.024,0.0951 -0.058,0.30038 -0.077,0.45608 -0.041,0.34513 -0.059,0.40433 -0.2658,0.88071 -0.09,0.20759 -0.2036,0.50483 -0.2523,0.66053 -0.085,0.27139 -0.3747,0.88027 -0.5244,1.10193 -0.039,0.0581 -0.2324,0.29119 -0.4292,0.51796 -0.2842,0.32754 -0.4436,0.47764 -0.7752,0.73006 -0.2296,0.17476 -0.4969,0.35002 -0.594,0.38947 -0.3936,0.15978 -1.2114,0.3832 -1.5302,0.41801 -0.3032,0.0331 -0.9848,0.0401 -1.2259,0.0126 z m -13.1196,-0.21596 c -0.1506,-0.0748 -0.1769,-0.16573 -0.1338,-0.4625 0.053,-0.36261 0.02,-0.94064 -0.076,-1.33326 -0.043,-0.17603 -0.088,-0.3969 -0.099,-0.49083 -0.02,-0.16162 -0.016,-0.17702 0.081,-0.28729 0.056,-0.0641 0.1572,-0.145 0.2251,-0.17983 0.1273,-0.0654 0.5108,-0.11998 0.8518,-0.12131 0.2643,-10e-4 0.4173,-0.0498 0.4613,-0.14708 0.029,-0.0632 0.024,-0.14691 -0.021,-0.39913 -0.1273,-0.71204 -0.1454,-0.84634 -0.191,-1.42004 -0.026,-0.3287 -0.069,-0.80286 -0.095,-1.05371 -0.026,-0.25084 -0.068,-0.66839 -0.094,-0.92789 -0.08,-0.80471 -0.1232,-1.00607 -0.222,-1.04424 -0.069,-0.0266 -0.2046,0.13511 -0.2779,0.33154 -0.03,0.0806 -0.111,0.25977 -0.1798,0.39816 -0.1242,0.24977 -0.1855,0.41279 -0.4478,1.1909 -0.075,0.2225 -0.1786,0.47875 -0.2301,0.56944 -0.165,0.29005 -0.2478,0.56801 -0.4108,1.37881 l -0.1593,0.79259 -0.01,0.91216 c 0,0.51423 -0.024,1.044 -0.046,1.21436 -0.035,0.26386 -0.033,0.32742 0.011,0.50093 0.079,0.31136 0.041,0.31951 -0.9347,0.20099 -0.7577,-0.092 -0.9092,-0.098 -2.0177,-0.0797 -0.3388,0.006 -0.7903,-0.007 -1.0162,-0.0295 -0.2857,-0.0278 -0.9959,-0.0379 -2.3918,-0.034 -1.1687,0.003 -2.2954,-0.01 -2.7392,-0.0317 -0.8556,-0.0422 -1.119,-0.021 -1.6532,0.1333 -0.5962,0.17223 -1.0693,0.18767 -1.9232,0.0628 -0.6273,-0.0917 -1.1354,-0.12471 -2.4856,-0.16125 -1.21,-0.0327 -1.72,-0.0767 -2.019,-0.17401 -0.1563,-0.0509 -0.3188,-0.19904 -0.3709,-0.33815 -0.049,-0.13168 -0.04,-0.49337 0.017,-0.66921 0.038,-0.1173 0.052,-0.31317 0.059,-0.81494 0.01,-0.62814 0.039,-0.92045 0.1081,-1.05124 0.017,-0.0323 0.076,-0.0744 0.1304,-0.0935 0.1392,-0.0488 0.5702,-0.0424 0.7933,0.0118 0.1032,0.0251 0.3034,0.0461 0.445,0.0467 0.2376,0.001 0.2649,-0.006 0.3538,-0.0855 0.082,-0.0736 0.1003,-0.11854 0.1226,-0.29921 0.014,-0.11692 0.016,-2.06307 0,-4.32478 -0.013,-2.26171 -0.017,-4.30433 -0.01,-4.53916 0.013,-0.37917 0.01,-0.44296 -0.048,-0.56984 -0.054,-0.12365 -0.083,-0.14979 -0.2127,-0.19425 -0.1853,-0.0635 -0.3825,-0.0655 -0.5722,-0.006 -0.2885,0.0908 -0.4113,0.12154 -0.4261,0.10662 -0.049,-0.049 -0.1175,-0.5591 -0.1414,-1.04867 -0.048,-0.98947 -0.1136,-1.54649 -0.1925,-1.64217 -0.019,-0.0223 -0.073,-0.0406 -0.1211,-0.0406 -0.048,0 -0.1579,-0.0163 -0.2439,-0.0363 -0.1878,-0.0436 -0.3215,-0.002 -0.3758,0.11823 -0.036,0.0802 -0.043,0.13452 -0.1,0.79876 -0.037,0.43397 -0.1548,1.15682 -0.2318,1.42336 -0.027,0.0943 -0.084,0.2039 -0.1258,0.24354 -0.099,0.0938 -0.2509,0.0775 -0.729,-0.078 -0.2487,-0.0809 -0.3937,-0.11124 -0.4987,-0.10445 -0.1378,0.009 -0.155,0.0199 -0.2462,0.15724 -0.1488,0.22393 -0.173,0.43749 -0.1855,1.63838 -0.01,0.58443 -0.017,1.07275 -0.024,1.08515 -0.01,0.0124 -0.018,1.50875 -0.025,3.32521 -0.01,2.61187 0,3.33032 0.028,3.4349 0.1105,0.36677 0.5296,0.58135 0.9413,0.48198 0.1249,-0.0301 0.1805,-0.0652 0.2562,-0.16124 0.1142,-0.14513 0.1841,-0.15476 0.2544,-0.0351 0.1308,0.22284 0.1774,0.4162 0.226,0.93814 0.094,1.01119 0.1133,1.19344 0.1653,1.57739 0.047,0.3496 0.048,0.39028 0,0.43481 -0.084,0.0847 -0.272,0.1056 -0.9487,0.10539 -0.4639,-1.6e-4 -0.7391,0.0145 -0.9379,0.05 -0.1877,0.0335 -0.6149,0.0592 -1.2819,0.0771 -0.8042,0.0215 -1.0643,0.0395 -1.3255,0.0915 -0.7174,0.14296 -1.2513,0.15812 -1.4926,0.0424 -0.2049,-0.0983 -0.3735,-0.55823 -0.4033,-1.10055 -0.024,-0.43586 -0.089,-0.77377 -0.2038,-1.06551 -0.051,-0.12841 -0.092,-0.2733 -0.092,-0.32197 0,-0.11213 0.081,-0.15166 0.4017,-0.19623 0.3278,-0.0455 0.5913,-0.10927 0.8412,-0.20346 0.4821,-0.18167 0.5337,-0.33299 0.554,-1.62536 0.013,-0.80454 0.03,-1.04967 0.109,-1.53884 0.073,-0.45016 0.024,-0.67099 -0.175,-0.80246 -0.075,-0.0498 -0.1995,-0.059 -1.0567,-0.0789 -0.5342,-0.0124 -1.1963,-0.0458 -1.4715,-0.0744 -0.6439,-0.0667 -1.139,-0.0543 -1.2324,0.0308 -0.1441,0.13136 -0.2474,0.33462 -0.2856,0.56217 -0.039,0.23383 -0.023,0.7527 0.033,1.02864 0.016,0.0778 0.029,0.37508 0.03,0.66053 0,0.9339 0.078,1.27787 0.3127,1.43423 0.063,0.042 0.2318,0.12527 0.3748,0.18505 0.2739,0.11449 0.3415,0.16174 0.4503,0.31513 0.063,0.089 0.067,0.13154 0.069,0.75489 0,0.58622 0.01,0.68707 0.071,0.89644 0.093,0.319 0.1348,0.53541 0.1146,0.59946 -0.021,0.0667 -0.2197,0.14304 -0.484,0.18605 -0.3261,0.0531 -1.4301,0.0914 -3.1422,0.10901 -0.877,0.009 -1.7775,0.0252 -2.001,0.0359 -0.4827,0.0231 -0.6163,-0.009 -0.7258,-0.17233 -0.085,-0.12769 -0.092,-0.3067 -0.025,-0.67947 0.054,-0.3002 0.06,-0.83093 0.015,-1.38654 -0.042,-0.51567 -0.012,-0.66122 0.1684,-0.83765 0.1401,-0.13684 0.1469,-0.13757 0.5365,-0.0573 0.1032,0.0213 0.4127,0.0408 0.6879,0.0435 l 0.5002,0.005 0.072,-0.14154 0.072,-0.14155 -0.017,-3.01957 c -0.01,-1.66076 -0.025,-3.76974 -0.035,-4.68662 -0.017,-1.60819 -0.016,-1.67849 0.048,-1.99076 0.072,-0.356 0.055,-0.52696 -0.062,-0.62819 -0.1279,-0.11018 -0.5153,-0.22232 -0.9028,-0.26137 -0.4443,-0.0448 -0.5506,-0.0907 -0.6507,-0.28119 -0.098,-0.18668 -0.089,-0.33844 0.042,-0.70732 0.1071,-0.30124 0.113,-0.33979 0.1388,-0.91216 0.015,-0.32869 0.037,-0.64008 0.048,-0.69198 0.032,-0.14307 0.1271,-0.25934 0.2396,-0.29373 0.2892,-0.0884 0.5156,-0.0714 1.0234,0.0769 0.4631,0.13517 0.8619,0.20019 2.0167,0.32875 0.1719,0.0191 0.4041,0.0539 0.5159,0.0773 0.3704,0.0774 0.9155,0.14035 1.4578,0.16831 0.5762,0.0297 0.6899,0.062 0.7593,0.21538 0.082,0.18178 0.022,0.53565 -0.1753,1.03129 -0.088,0.22003 -0.088,0.22065 -0.079,0.88071 0.01,0.71934 0,0.77149 -0.1591,0.85422 -0.1064,0.0554 -0.2354,0.0404 -0.6046,-0.0702 -0.3169,-0.0949 -0.4758,-0.0978 -0.586,-0.0106 -0.1782,0.14107 -0.1872,0.19244 -0.1834,1.05093 0,1.10541 0.054,2.02342 0.1172,2.17482 0.06,0.14425 0.1546,0.25154 0.2802,0.3172 0.076,0.04 0.1443,0.0435 0.3908,0.0206 0.5435,-0.0506 1.5138,-0.0345 1.846,0.0306 0.1633,0.032 0.4236,0.0603 0.5784,0.0628 0.5965,0.01 0.7205,-0.18869 0.8906,-1.42652 0.037,-0.26815 0.1092,-0.73235 0.1608,-1.03156 0.1088,-0.63149 0.1475,-1.27033 0.084,-1.38736 -0.089,-0.16352 -0.1958,-0.20811 -0.4807,-0.20021 -0.2401,0.007 -0.2652,0.002 -0.2982,-0.0603 -0.06,-0.11323 -0.016,-0.83365 0.076,-1.2523 0.055,-0.24978 0.09,-0.5366 0.1118,-0.92685 0.038,-0.67901 0.055,-0.71889 0.3107,-0.73398 0.1264,-0.007 0.2497,0.0213 0.5727,0.13365 0.4331,0.15062 0.7526,0.22011 1.1671,0.25388 0.1376,0.0112 0.5104,0.068 0.8286,0.12625 0.5744,0.10514 0.8005,0.13691 1.4465,0.20324 0.3662,0.0376 0.9397,0.15105 1.2948,0.25614 0.2676,0.0792 0.3795,0.0655 0.5855,-0.0718 l 0.1467,-0.0978 0.8974,-0.0413 c 0.4935,-0.0227 1.031,-0.062 1.1943,-0.0873 0.1634,-0.0253 0.5081,-0.055 0.766,-0.0661 0.258,-0.0111 0.7363,-0.0406 1.0631,-0.0655 1.5723,-0.12012 2.0505,-0.14279 2.1365,-0.10129 l 0.083,0.0402 v 0.896 c 0,0.82869 0.01,0.9149 0.072,1.14762 0.1004,0.36109 0.1207,0.62187 0.056,0.72096 -0.078,0.11994 -0.2282,0.14175 -0.9268,0.13473 -0.5733,-0.006 -0.6498,-4.3e-4 -0.7243,0.0505 -0.2167,0.14804 -0.2663,0.46925 -0.293,1.89708 -0.021,1.10539 0.01,2.24299 0.083,3.06293 0.018,0.19894 0.037,1.54075 0.044,2.98178 0.012,2.61013 0.012,2.62047 0.078,2.72867 0.075,0.12149 0.084,0.12478 0.4993,0.17131 0.3651,0.0409 1.0116,0.20312 1.149,0.28827 l 0.1016,0.063 v 0.30411 c 0,0.58334 0.048,1.09714 0.104,1.18314 0.072,0.11105 0.1585,0.10233 0.2166,-0.0219 0.2193,-0.46832 0.2621,-0.85948 0.1446,-1.32221 -0.078,-0.30669 -0.063,-0.42178 0.073,-0.55735 0.178,-0.17721 0.351,-0.20072 0.6842,-0.093 0.2528,0.0817 0.6159,0.11459 0.7095,0.0642 0.097,-0.0523 0.2488,-0.27243 0.2875,-0.41722 0.021,-0.0786 0.031,-0.70066 0.028,-1.74871 -0.011,-3.50419 -0.01,-6.99216 0,-7.35688 0.013,-0.35238 0.01,-0.39008 -0.052,-0.47181 -0.1103,-0.14881 -0.2469,-0.20788 -0.5339,-0.23082 -0.1445,-0.0115 -0.2793,-0.0377 -0.2997,-0.0582 -0.052,-0.0519 -0.082,-0.76307 -0.05,-1.16805 0.018,-0.22228 0.014,-0.41767 -0.011,-0.59762 -0.02,-0.14705 -0.038,-0.46094 -0.039,-0.69754 0,-0.4895 0.022,-0.55401 0.2506,-0.6707 0.1058,-0.0541 0.1802,-0.0624 0.5295,-0.0591 0.2236,0.002 0.5514,0.0273 0.7284,0.0559 0.1771,0.0287 0.6414,0.0727 1.0318,0.0977 0.3904,0.0251 0.8012,0.061 0.913,0.0799 0.1118,0.0189 0.5128,0.0453 0.8911,0.0587 0.7501,0.0266 0.8821,0.0563 1.0458,0.23534 l 0.077,0.0838 -0.01,1.33895 c 0,0.73642 -0.015,1.35347 -0.026,1.37122 -0.012,0.0195 -0.084,0.0247 -0.1811,0.0132 -0.1389,-0.0164 -0.1772,-0.008 -0.2768,0.06 -0.3068,0.20968 -0.2714,0.52179 0.1296,1.14439 0.072,0.1112 0.1585,0.29435 0.1931,0.40699 0.034,0.11264 0.1206,0.34012 0.1913,0.50553 0.071,0.1654 0.2111,0.52653 0.3121,0.80251 0.1011,0.27598 0.2608,0.63868 0.3549,0.806 0.2983,0.53 0.4507,0.9049 0.6439,1.58378 0.1367,0.48059 0.2523,0.70519 0.4759,0.92492 0.099,0.0974 0.1597,0.13336 0.2118,0.12581 0.088,-0.0128 0.2158,-0.19106 0.3225,-0.45092 0.09,-0.2197 0.3963,-1.31119 0.4893,-1.74568 0.035,-0.16435 0.092,-0.34836 0.1255,-0.4089 0.034,-0.0605 0.1467,-0.28256 0.2508,-0.49336 0.1523,-0.30856 0.1979,-0.43731 0.2339,-0.66053 0.052,-0.32032 0.1447,-0.66669 0.5473,-2.03552 0.1309,-0.44487 0.1208,-0.54458 -0.08,-0.79076 -0.058,-0.071 -0.159,-0.22715 -0.2249,-0.347 l -0.1197,-0.21792 -0.019,-0.61335 c -0.022,-0.68751 -0.044,-0.78759 -0.2212,-0.99016 -0.1356,-0.15502 -0.152,-0.2663 -0.054,-0.36511 0.1113,-0.11191 0.266,-0.15511 0.7259,-0.20271 0.2441,-0.0253 0.5361,-0.0598 0.6488,-0.0768 0.3512,-0.053 0.9077,-0.0943 1.6948,-0.12587 0.4168,-0.0167 0.9407,-0.0529 1.1643,-0.0805 0.5833,-0.0719 1.3611,-0.0767 1.5671,-0.01 0.2475,0.0806 0.3437,0.14111 0.4189,0.26338 0.079,0.1282 0.076,0.29994 -0.012,0.69099 -0.077,0.34193 -0.065,0.56085 0.048,0.90013 0.1562,0.46847 0.1347,0.87879 -0.054,1.03657 -0.041,0.0342 -0.162,0.0451 -0.5101,0.0459 -0.4181,9.3e-4 -0.467,0.007 -0.5842,0.0737 -0.2671,0.1519 -0.2932,0.31982 -0.2347,1.50888 0.04,0.80656 0.068,1.12176 0.158,1.75048 0.032,0.22489 0.068,0.57167 0.079,0.77062 0.025,0.4419 0.1197,1.17833 0.204,1.59045 0.075,0.36531 0.1333,0.85154 0.2025,1.68075 0.028,0.33734 0.078,0.83982 0.1099,1.11661 0.032,0.2768 0.068,0.62357 0.078,0.77062 0.051,0.70095 0.112,1.20403 0.1563,1.29019 0.026,0.0513 0.084,0.11693 0.1279,0.14594 0.075,0.0497 0.1058,0.0488 0.5231,-0.016 0.2436,-0.0378 0.5063,-0.0682 0.5837,-0.0675 0.2586,0.002 0.5315,0.1875 0.5315,0.36057 0,0.038 0.036,0.24486 0.081,0.4597 0.096,0.46408 0.14,0.93522 0.1159,1.24273 -0.013,0.16686 0,0.2652 0.038,0.39049 0.053,0.16122 0.053,0.16902 0,0.20946 -0.031,0.0231 -0.093,0.0423 -0.1371,0.0426 -0.3563,0.003 -0.8682,0.0342 -1.2212,0.0749 -0.5035,0.058 -1.0813,0.10155 -1.9255,0.14504 -0.7385,0.038 -1.2369,0.096 -1.7482,0.20337 -0.4352,0.0914 -0.8244,0.10318 -0.9729,0.0295 z m -5.6528,-3.25492 c 0.2261,-0.16153 0.2945,-0.31735 0.2945,-0.67098 0,-0.42942 -0.062,-0.6281 -0.5078,-1.63881 -0.076,-0.173 -0.1639,-0.36408 -0.1945,-0.42463 -0.099,-0.19603 -0.4564,-0.78369 -0.5077,-0.8353 -0.089,-0.0895 -0.1578,0.0259 -0.1948,0.32672 -0.089,0.72445 -0.064,2.22144 0.046,2.70806 0.1016,0.44919 0.3519,0.67718 0.7201,0.65581 0.1572,-0.009 0.2169,-0.0301 0.3439,-0.12087 z m -162.5989,1.88759 c -0.6688,-0.0703 -1.4877,-0.2314 -2.0137,-0.39619 -0.2337,-0.0732 -0.7126,-0.27469 -1.2562,-0.52851 -0.1217,-0.0568 -0.4242,-0.24184 -0.6722,-0.41113 -1.4307,-0.97663 -2.3289,-2.07138 -2.7915,-3.40245 -0.1211,-0.34852 -0.441,-1.06818 -0.5095,-1.1462 -0.074,-0.0845 -0.3868,-0.20987 -0.6143,-0.24638 -0.117,-0.0188 -0.3448,-0.0303 -0.5061,-0.0256 -0.2551,0.007 -0.3046,9e-5 -0.3812,-0.0564 -0.1488,-0.1098 -0.1973,-0.24717 -0.1974,-0.55863 0,-0.25144 0.011,-0.30251 0.1134,-0.53472 0.1829,-0.41424 0.2051,-0.53057 0.2946,-1.54633 0.019,-0.21113 0.052,-0.40671 0.076,-0.44386 0.06,-0.0925 0.2154,-0.11018 0.6736,-0.0766 0.2954,0.0217 0.5221,0.0633 0.9369,0.17228 0.8098,0.21273 1.506,0.31967 2.9744,0.45691 0.7722,0.0722 1.1342,0.12091 1.5278,0.20573 0.9804,0.21126 1.1804,0.28215 1.4209,0.50379 0.1284,0.1183 0.1386,0.19833 0.063,0.49247 -0.026,0.10311 -0.096,0.47316 -0.1547,0.82234 -0.059,0.34918 -0.1499,0.77642 -0.2029,0.94941 -0.053,0.173 -0.1301,0.42619 -0.1712,0.56265 -0.1065,0.35386 -0.1092,0.35547 -0.4284,0.25751 -0.3453,-0.10593 -0.5637,-0.1063 -0.76,-0.001 -0.1695,0.0907 -0.2642,0.19076 -0.2657,0.28081 -6e-4,0.0356 0.088,0.14962 0.21,0.26936 0.3526,0.34692 1.3479,0.81901 2.1182,1.00473 0.272,0.0656 1.1598,0.15861 1.5046,0.15768 0.5015,-10e-4 1.5374,-0.23972 2.2056,-0.50755 0.3168,-0.12695 0.4545,-0.20333 0.6878,-0.38153 0.1604,-0.12253 0.4957,-0.36051 0.7451,-0.52883 0.7039,-0.47508 0.812,-0.59815 1.2188,-1.38809 0.4341,-0.84303 0.5379,-1.15326 0.4703,-1.40597 -0.055,-0.2063 -0.16,-0.29655 -0.587,-0.50576 -0.7614,-0.373 -1.3454,-0.57268 -2.0164,-0.68935 -0.202,-0.0351 -0.5537,-0.11231 -0.7816,-0.17153 -0.4425,-0.11496 -0.6286,-0.14142 -1.6807,-0.23894 -0.727,-0.0674 -1.4211,-0.11021 -2.5481,-0.15719 -0.6244,-0.026 -1.8577,-0.1488 -2.5245,-0.25131 -0.4214,-0.0648 -1.0958,-0.29542 -2.0715,-0.70844 -0.4571,-0.19348 -0.6881,-0.32342 -1.0634,-0.59801 -0.372,-0.27232 -0.5364,-0.44349 -0.7704,-0.80219 -0.4059,-0.62231 -0.5583,-1.08013 -0.6546,-1.96587 -0.043,-0.39513 -0.039,-1.54854 0.01,-1.90296 0.068,-0.52974 0.2694,-1.04173 0.5516,-1.40456 0.065,-0.0838 0.2119,-0.28687 0.326,-0.45121 0.3931,-0.56641 1.1153,-1.21916 2.0257,-1.83088 0.6188,-0.41576 0.9845,-0.61883 1.5477,-0.85939 0.172,-0.0734 0.4815,-0.21096 0.6878,-0.30558 0.6002,-0.27522 1.3523,-0.5066 2.173,-0.6685 0.1462,-0.0288 0.4915,-0.10777 0.7675,-0.1754 0.8385,-0.20553 2.0273,-0.27959 2.7438,-0.17094 0.6656,0.10093 1.7669,0.42187 2.4604,0.71699 0.4165,0.17726 1.165,0.57945 1.4685,0.78908 0.3749,0.25891 1.0574,0.9495 1.4258,1.4426 0.3362,0.44998 0.4923,0.73667 0.604,1.1092 0.1302,0.43456 0.2769,0.59211 0.5877,0.63116 0.3352,0.0421 0.8131,-0.0373 1.0017,-0.16646 0.065,-0.0445 0.1633,-0.1 0.2186,-0.12335 0.096,-0.0405 0.106,-0.0377 0.2163,0.0597 0.1335,0.11776 0.2823,0.34463 0.3815,0.58134 0.066,0.1579 0.095,0.34335 0.2051,1.30608 0.048,0.41896 0.1235,0.64722 0.2859,0.86134 0.1496,0.19741 0.1019,0.26098 -0.3186,0.42411 -0.2313,0.0897 -1.1021,0.2807 -1.9807,0.43434 -0.215,0.0376 -0.6511,0.13033 -0.9692,0.20609 -0.3182,0.0758 -0.8036,0.18919 -1.0787,0.25206 -0.2751,0.0629 -0.6128,0.14102 -0.7504,0.17366 -0.1375,0.0326 -0.3486,0.0746 -0.469,0.0933 -0.3103,0.0481 -0.4932,0.11469 -0.5867,0.21361 -0.1177,0.12442 -0.1342,0.22777 -0.053,0.33141 0.1002,0.12818 0.2328,0.18653 1.1558,0.50874 0.4053,0.14148 0.9988,0.43503 1.4851,0.73459 0.481,0.29624 1.1464,1.02193 1.4466,1.57767 0.2241,0.41499 0.4372,0.96977 0.4891,1.27388 0.1109,0.64932 0.1012,0.80213 -0.092,1.44687 -0.041,0.1384 -0.1302,0.47137 -0.1974,0.73994 -0.1933,0.77272 -0.4087,1.13459 -1.2729,2.13809 -0.1266,0.14705 -0.3197,0.37352 -0.4292,0.50326 -0.4911,0.58224 -1.8719,1.66174 -2.6101,2.04064 -0.073,0.0376 -0.235,0.10488 -0.3595,0.14958 -0.1246,0.0447 -0.4043,0.16449 -0.6217,0.26621 -0.5564,0.26037 -1.022,0.38559 -1.9205,0.51646 -0.6674,0.0972 -0.8192,0.10911 -1.3444,0.10532 -0.3256,-0.002 -0.6974,-0.0154 -0.8263,-0.0289 z m 3.0423,-12.31457 c 0.1109,-0.0386 0.1717,-0.0847 0.2313,-0.1752 0.1442,-0.21927 0.088,-0.55891 -0.2862,-1.72567 -0.1331,-0.41513 -0.1868,-0.69017 -0.1614,-0.82647 0.019,-0.10453 0.131,-0.23602 0.2535,-0.29877 0.139,-0.0712 0.8942,-0.25767 1.1724,-0.28943 0.4657,-0.0532 0.7798,-0.16624 0.9927,-0.35745 0.1471,-0.13202 0.073,-0.38654 -0.1891,-0.65028 -0.1619,-0.16287 -0.9956,-0.81019 -1.084,-0.84166 -0.026,-0.009 -0.2026,-0.0868 -0.3918,-0.17212 -0.7666,-0.34569 -1.0935,-0.43212 -1.7196,-0.45453 -0.3897,-0.014 -0.5012,-0.005 -1.0161,0.0823 -0.664,0.11249 -1.065,0.21041 -1.4786,0.36103 -0.1601,0.0583 -0.4026,0.13678 -0.5389,0.17439 -0.1363,0.0376 -0.3888,0.12262 -0.5612,0.18889 -0.1723,0.0663 -0.4487,0.16336 -0.6141,0.21576 -0.4122,0.13058 -0.9975,0.36346 -1.1426,0.45459 -0.066,0.0414 -0.2233,0.12802 -0.3497,0.19239 -0.6496,0.33096 -1.0469,0.69481 -1.2418,1.1375 -0.1087,0.24689 -0.1787,0.59103 -0.1529,0.75193 0.034,0.213 0.1285,0.53325 0.1956,0.66419 0.2881,0.56151 1.4369,1.07787 2.8202,1.26759 0.7749,0.10629 1.2545,0.14662 2.892,0.24329 0.4815,0.0284 1.0373,0.0703 1.235,0.0931 0.4401,0.0507 0.9318,0.0354 1.1353,-0.0354 z m -1.8075,-1.38775 c -0.2068,-0.0182 -1.1444,-0.13689 -1.3288,-0.16816 -0.095,-0.016 -0.3056,-0.0439 -0.469,-0.0618 -0.1633,-0.018 -0.6206,-0.0891 -1.0161,-0.15803 -1.218,-0.21236 -1.1337,-0.18858 -1.4724,-0.41516 -0.2075,-0.13876 -0.2719,-0.2157 -0.2433,-0.2906 0.048,-0.12581 0.9045,-0.6419 1.0708,-0.6452 0.023,-4.6e-4 0.1853,-0.0706 0.3595,-0.15581 0.1742,-0.0852 0.4503,-0.19721 0.6137,-0.24884 2.0482,-0.64736 2.1208,-0.66686 2.5128,-0.67459 0.3412,-0.007 0.3425,-0.006 0.3636,0.0719 0.024,0.0902 -0.017,0.29938 -0.1395,0.71716 -0.077,0.25981 -0.085,0.33019 -0.073,0.62908 0.011,0.28182 0.032,0.39025 0.1253,0.66681 0.1392,0.41018 0.1713,0.63412 0.1011,0.70477 -0.049,0.0489 -0.1184,0.0538 -0.4049,0.0285 z m 93.2652,13.2942 c -0.2962,-0.0323 -0.6588,-0.12705 -1.0162,-0.26564 -0.1633,-0.0633 -0.3955,-0.15155 -0.5159,-0.19601 -0.4328,-0.15986 -0.9551,-0.56926 -1.5789,-1.23769 -0.5993,-0.64221 -0.8742,-1.06957 -1.1046,-1.71754 -0.044,-0.12388 -0.172,-0.41404 -0.2842,-0.6448 -0.2452,-0.50393 -0.3441,-0.84476 -0.4094,-1.41036 -0.077,-0.67161 -0.09,-1.28309 -0.051,-2.43519 0.061,-1.7886 0.074,-1.90817 0.3156,-2.97488 0.087,-0.38169 0.1869,-0.67289 0.401,-1.16379 0.094,-0.21624 0.2338,-0.5701 0.31,-0.78635 0.1733,-0.49209 0.2661,-0.66239 0.6693,-1.22894 0.3459,-0.48594 0.9209,-1.10144 1.2659,-1.35495 0.2657,-0.19526 1.0597,-0.59672 1.4485,-0.73243 0.4942,-0.17246 0.7634,-0.2095 1.5191,-0.20908 0.9786,5.5e-4 1.6387,0.10924 2.2281,0.36686 0.7507,0.32812 1.107,0.57836 1.6488,1.15802 0.4308,0.46084 0.8254,0.97735 0.9954,1.30285 0.065,0.12375 0.1716,0.37028 0.2377,0.54784 0.066,0.17755 0.1626,0.41681 0.2145,0.53169 0.2494,0.55203 0.4341,1.25488 0.6352,2.41754 0.095,0.54592 0.095,0.55974 0.094,1.68278 0,0.94478 -0.011,1.20788 -0.062,1.58842 -0.1378,1.02346 -0.4377,1.87981 -1.2006,3.42832 -0.2517,0.51097 -1.7564,2.1332 -2.3207,2.50208 -0.5551,0.36283 -1.5789,0.76842 -2.0948,0.82992 -0.313,0.0373 -1.008,0.038 -1.3444,10e-4 z m 1.36,-3.0357 c 0.4131,-0.111 0.693,-0.2801 1.0836,-0.65464 0.532,-0.51008 0.8002,-0.90115 1.2758,-1.86034 0.077,-0.1557 0.1748,-0.41047 0.217,-0.56617 0.3602,-1.33039 0.4121,-2.02772 0.2391,-3.20833 -0.1007,-0.68729 -0.1936,-1.17115 -0.2718,-1.41538 -0.059,-0.18461 -0.2884,-0.7408 -0.3242,-0.78635 -0.014,-0.0173 -0.075,-0.15659 -0.136,-0.30954 -0.1468,-0.36722 -0.2291,-0.5035 -0.5065,-0.83885 -0.223,-0.26947 -0.2457,-0.28721 -0.5685,-0.44315 -0.4729,-0.22845 -0.5723,-0.25152 -1.1675,-0.27088 -0.6612,-0.0215 -0.9407,0.0271 -1.2636,0.21973 -0.5576,0.33267 -0.8623,0.62697 -1.0456,1.00987 -0.2216,0.46296 -0.4459,0.97556 -0.5178,1.18326 -0.039,0.11245 -0.1142,0.31352 -0.1673,0.44684 -0.053,0.13331 -0.1332,0.43055 -0.1779,0.66053 -0.045,0.22998 -0.1173,0.59507 -0.1612,0.81132 -0.1166,0.57505 -0.1306,1.17818 -0.043,1.8715 0.1782,1.41388 0.3131,1.92923 0.7206,2.75221 0.4239,0.85597 0.5376,0.99471 0.9974,1.21748 0.5531,0.26794 1.2394,0.33624 1.8176,0.18089 z m -0.7228,-1.48478 c -0.074,-0.016 -0.6089,-0.61439 -0.6865,-0.76757 -0.036,-0.0717 -0.1498,-0.25537 -0.2522,-0.40824 -0.1023,-0.15287 -0.1995,-0.31711 -0.2159,-0.36498 -0.016,-0.0479 -0.066,-0.29935 -0.1097,-0.55884 -0.1191,-0.70272 -0.1332,-1.34489 -0.047,-2.13886 0.099,-0.90969 0.1577,-1.13584 0.3629,-1.38775 0.06,-0.0739 0.1631,-0.23782 0.2286,-0.36415 0.161,-0.31037 0.53,-0.91578 0.6402,-1.05023 0.1645,-0.20084 0.565,-0.33829 0.7788,-0.26731 0.267,0.0887 0.5841,0.45033 0.6983,0.7965 0.03,0.091 0.1223,0.31836 0.205,0.50515 0.2394,0.54058 0.3231,0.88498 0.4173,1.71574 0.1132,0.99967 0.01,1.74753 -0.3296,2.3875 -0.085,0.16002 -0.2269,0.42895 -0.3156,0.59762 -0.395,0.75125 -1.0521,1.37532 -1.3745,1.30542 z m -9.8606,4.46022 c -0.1054,-0.0434 -0.1591,-0.1253 -0.4864,-0.74241 -0.3192,-0.60166 -0.5859,-1.0572 -0.8352,-1.42643 -0.075,-0.11069 -0.2414,-0.41749 -0.3703,-0.68178 -0.129,-0.26428 -0.3546,-0.67619 -0.5014,-0.91535 -0.1468,-0.23916 -0.4274,-0.72872 -0.6236,-1.0879 -0.1961,-0.35918 -0.4244,-0.76258 -0.5072,-0.89643 -0.083,-0.13386 -0.2748,-0.484 -0.4266,-0.7781 -0.1518,-0.29409 -0.3607,-0.66918 -0.4641,-0.83352 -0.1861,-0.29553 -0.2902,-0.47772 -0.6173,-1.08004 -0.092,-0.17018 -0.247,-0.39665 -0.3434,-0.50326 -0.097,-0.10662 -0.2335,-0.28054 -0.3045,-0.38649 -0.1489,-0.2221 -0.2035,-0.25453 -0.2872,-0.1704 -0.1601,0.16107 -0.2033,0.71573 -0.1714,2.20214 0.014,0.64926 0.026,1.63471 0.027,2.18989 0,1.06192 0.01,1.08552 0.1447,1.13007 0.035,0.0112 0.1142,-0.0139 0.1963,-0.0623 0.2063,-0.12162 0.5773,-0.16842 0.8022,-0.10117 0.2083,0.0623 0.355,0.14979 0.4211,0.25116 0.075,0.11499 0.1323,0.47591 0.1862,1.16982 0.027,0.34599 0.079,0.76561 0.1158,0.93247 0.076,0.34508 0.064,0.44651 -0.061,0.51173 -0.1353,0.0704 -0.5446,0.16551 -0.9588,0.22289 -0.2064,0.0286 -0.6988,0.10719 -1.0943,0.17466 -0.3955,0.0675 -0.9935,0.15934 -1.3288,0.20414 -0.8167,0.10912 -1.5638,0.24316 -2.001,0.35901 -0.4798,0.12716 -0.6504,0.12683 -0.7957,-0.002 -0.1365,-0.12056 -0.162,-0.2188 -0.1859,-0.71571 -0.012,-0.24322 -0.047,-0.50767 -0.095,-0.70772 -0.042,-0.17566 -0.1131,-0.52069 -0.158,-0.76673 -0.094,-0.51254 -0.087,-0.54673 0.1191,-0.63492 0.2012,-0.086 0.265,-0.0961 0.8059,-0.12698 0.4599,-0.0263 0.5198,-0.0366 0.6802,-0.1175 0.311,-0.15679 0.2925,-0.0284 0.2966,-2.06354 0,-0.97249 0,-2.99249 0,-4.48891 0,-1.49642 0,-2.96138 4e-4,-3.25547 0.01,-0.84797 -0.078,-0.97898 -0.6677,-1.04087 -0.4939,-0.0518 -0.6066,-0.24492 -0.4514,-0.77316 0.074,-0.25134 0.086,-0.34746 0.084,-0.67083 0,-0.38012 -0.046,-0.86401 -0.1061,-1.17423 -0.074,-0.37807 -0.028,-0.39558 0.9506,-0.36684 0.9457,0.0278 3.2491,-0.0317 3.6623,-0.0946 0.1705,-0.0259 0.3802,-0.0471 0.4661,-0.0471 0.1409,0 0.1674,0.012 0.2728,0.12354 0.064,0.0679 0.1556,0.20312 0.2029,0.30039 0.1082,0.22263 0.1256,0.50775 0.084,1.36894 -0.03,0.61216 -0.03,0.61387 -0.1469,0.87841 -0.1616,0.36601 -0.2254,0.70344 -0.1756,0.92743 0.058,0.26118 0.2575,0.64473 0.4948,0.95161 0.3607,0.46664 0.8151,1.16474 1.007,1.54724 0.054,0.10736 0.1419,0.31731 0.1956,0.46656 0.095,0.26276 0.286,0.58618 0.4622,0.78036 0.1459,0.16092 0.5102,0.7878 0.8681,1.49405 0.1885,0.37195 0.3894,0.75411 0.4463,0.84926 0.1204,0.20116 0.2762,0.37744 0.3334,0.37744 0.1259,0 0.2073,-0.4495 0.2904,-1.60414 0.047,-0.65348 0.055,-1.05265 0.045,-2.15459 -0.015,-1.60854 -0.02,-1.68703 -0.1213,-2.0273 -0.1344,-0.45177 -0.1613,-0.47066 -0.7039,-0.49471 -0.4651,-0.0206 -0.5737,-0.0493 -0.6664,-0.17614 -0.1841,-0.25189 -0.1889,-0.52034 -0.02,-1.10777 0.1564,-0.54246 0.1814,-0.73804 0.1465,-1.14565 -0.021,-0.24597 -0.02,-0.36418 0,-0.38734 0.051,-0.0513 0.5755,-0.0842 0.8815,-0.0553 0.1507,0.0142 0.4759,0.0699 0.7227,0.12382 0.2468,0.0539 0.702,0.14611 1.0116,0.20497 0.3095,0.0589 0.7034,0.13631 0.8754,0.17212 0.172,0.0358 0.4604,0.0946 0.6409,0.13069 0.6255,0.12497 1.1581,0.33032 1.3916,0.53654 0.2384,0.21058 0.2583,0.38965 0.1253,1.1279 -0.112,0.62157 -0.2159,0.99637 -0.3617,1.30506 -0.1008,0.21359 -0.1427,0.26967 -0.2334,0.31299 -0.105,0.0501 -0.1231,0.0495 -0.359,-0.012 -0.3446,-0.0899 -0.4455,-0.085 -0.5701,0.0273 l -0.1021,0.092 0.01,0.35617 c 0,0.1959 -0.01,0.65659 -0.025,1.02377 -0.077,1.64307 -0.086,2.89825 -0.042,5.48164 0.045,2.61033 0.058,2.90412 0.1607,3.53856 0.077,0.47737 0.075,0.77441 -0.01,0.86517 -0.07,0.0776 -0.3401,0.22151 -0.5315,0.28291 -0.218,0.0699 -0.5531,0.25237 -0.8591,0.46772 -0.6125,0.43101 -0.7085,0.47728 -0.8605,0.41469 z m -42.6091,-0.3722 c -0.031,-0.0349 -0.1182,-0.22053 -0.1935,-0.41253 -0.213,-0.5433 -0.3122,-0.7048 -0.662,-1.0771 -0.4176,-0.44462 -0.4461,-0.56928 -0.2036,-0.89278 0.1018,-0.13581 0.1519,-0.17033 0.3777,-0.26006 0.5521,-0.21941 0.9421,-0.55719 0.9409,-0.815 0,-0.30436 -1.0285,-2.0276 -1.8309,-3.07153 -0.2497,-0.32485 -0.5204,-0.765 -0.7603,-1.23647 -0.237,-0.46562 -0.5563,-0.76444 -0.8709,-0.81505 -0.2678,-0.0431 -0.663,0.15397 -0.778,0.38782 -0.049,0.0997 -0.058,0.19037 -0.055,0.58963 0,0.25949 0.025,0.72658 0.053,1.03797 0.028,0.3114 0.053,0.85634 0.056,1.21098 0,0.35464 0.017,0.72195 0.032,0.81625 0.035,0.2231 0.169,0.44174 0.3149,0.51381 0.1059,0.0524 0.1346,0.053 0.4215,0.01 0.4803,-0.072 0.7238,-0.0875 0.7929,-0.0502 0.034,0.0184 0.097,0.10329 0.1404,0.18859 0.095,0.18827 0.1055,0.50688 0.028,0.83936 -0.093,0.40027 -0.1997,1.09419 -0.1999,1.29942 0,0.16242 0.016,0.23031 0.077,0.33027 0.1049,0.17137 0.1028,0.25769 -0.01,0.27922 -0.3683,0.0722 -0.9369,0.0443 -1.5555,-0.0765 -0.1719,-0.0336 -0.4322,-0.0758 -0.5784,-0.0938 -0.1461,-0.018 -0.5471,-0.0808 -0.891,-0.1394 -0.344,-0.0586 -0.759,-0.12239 -0.9224,-0.14168 -0.3502,-0.0413 -0.6909,-0.0872 -0.9595,-0.12905 -0.1065,-0.0166 -0.4428,-0.0439 -0.7474,-0.0606 -0.6455,-0.0355 -0.7005,-0.0553 -0.7005,-0.25182 0,-0.0694 0.047,-0.24002 0.1055,-0.38459 0.1482,-0.36478 0.2588,-0.72604 0.3004,-0.98078 0.02,-0.11971 0.069,-0.29819 0.1103,-0.39662 0.041,-0.0984 0.099,-0.2759 0.1287,-0.3944 0.033,-0.13109 0.082,-0.24128 0.1246,-0.28141 0.039,-0.0363 0.2045,-0.11924 0.368,-0.18436 0.3375,-0.13435 0.4719,-0.25472 0.5698,-0.51017 0.067,-0.17563 0.068,-0.24897 0.032,-4.96668 -0.021,-2.67064 -0.049,-3.49357 -0.1295,-3.80469 -0.087,-0.33558 -0.2901,-0.52076 -0.6546,-0.59749 -0.1173,-0.0247 -0.2231,-0.0563 -0.2352,-0.0703 -0.034,-0.0389 -0.1814,-0.80619 -0.2193,-1.1387 -0.023,-0.20158 -0.064,-0.36651 -0.1294,-0.51899 -0.053,-0.12293 -0.1225,-0.30004 -0.1552,-0.39357 -0.071,-0.20341 -0.079,-0.48222 -0.015,-0.53545 0.081,-0.0679 0.8105,-0.19586 2.3612,-0.41436 0.3686,-0.0519 0.7696,-0.11551 0.8911,-0.14127 0.1214,-0.0257 0.4037,-0.0548 0.6272,-0.0645 0.5133,-0.0223 0.8586,-0.10172 1.0051,-0.23112 0.2243,-0.1982 0.4563,-0.0971 0.6222,0.27129 0.1196,0.26559 0.2248,0.88121 0.2965,1.73395 0.016,0.19477 0.051,0.40527 0.077,0.46778 0.057,0.13794 0.062,0.33802 0.01,0.38231 -0.021,0.0178 -0.1938,0.0484 -0.383,0.068 -1.0442,0.10807 -1.1213,0.13054 -1.16,0.33816 -0.03,0.16122 0.021,1.9822 0.068,2.44925 0.01,0.0876 0.044,0.20441 0.077,0.2595 0.051,0.0849 0.079,0.10015 0.1818,0.10015 0.1728,0 0.4988,-0.17383 0.8332,-0.44421 0.1548,-0.12512 0.469,-0.36735 0.6983,-0.5383 0.2293,-0.17094 0.4966,-0.38848 0.594,-0.48343 0.1976,-0.19246 0.6512,-0.50606 1.0014,-0.69216 0.1265,-0.0673 0.3036,-0.19318 0.3935,-0.27981 0.2348,-0.2262 0.291,-0.39724 0.3248,-0.98851 0.031,-0.5411 0.061,-0.6272 0.372,-1.05635 0.1,-0.13807 0.2611,-0.37135 0.3581,-0.51839 0.1005,-0.15241 0.3101,-0.39922 0.4873,-0.57404 0.4166,-0.41077 0.4345,-0.41009 0.9249,0.0349 0.135,0.12255 0.3882,0.31736 0.5627,0.4329 0.1745,0.11555 0.5002,0.3477 0.7237,0.51588 0.2236,0.16818 0.4679,0.33701 0.543,0.37518 0.1308,0.0665 0.4893,0.30225 1.3602,0.89428 0.8222,0.55903 0.9586,0.6927 0.9569,0.93786 -5e-4,0.0824 -0.043,0.15242 -0.2059,0.33969 -0.1129,0.12974 -0.2838,0.35621 -0.3797,0.50326 -0.504,0.77242 -0.9104,1.26372 -1.0809,1.30677 -0.1502,0.0379 -0.2778,-0.0506 -0.7115,-0.49404 -0.4858,-0.49669 -0.6129,-0.57576 -0.9198,-0.57224 -0.2821,0.003 -0.4931,0.11154 -0.7193,0.36913 -0.1012,0.11515 -0.2438,0.24468 -0.317,0.28785 -0.073,0.0432 -0.2429,0.16633 -0.377,0.27367 -0.134,0.10735 -0.3633,0.26413 -0.5095,0.3484 -0.1462,0.0843 -0.3009,0.18469 -0.3439,0.22314 -0.2194,0.19623 -0.5963,0.45384 -0.852,0.58233 -0.3212,0.16143 -0.4045,0.25378 -0.4588,0.50859 -0.027,0.12552 -0.023,0.20296 0.016,0.37933 0.044,0.19644 0.097,0.29102 0.4612,0.83276 0.2261,0.33613 0.5447,0.81968 0.7081,1.07455 0.1634,0.25486 0.3556,0.54111 0.4272,0.6361 0.072,0.095 0.1911,0.2619 0.2657,0.3709 0.075,0.109 0.3061,0.44162 0.5145,0.73916 0.2083,0.29754 0.4248,0.63298 0.481,0.74543 0.1357,0.27117 0.3219,0.5442 0.429,0.62893 0.1101,0.0871 0.1602,0.0791 0.8059,-0.12864 0.5472,-0.17605 0.8563,-0.22282 0.9929,-0.15027 0.045,0.0237 0.2209,0.19397 0.3915,0.37829 0.2979,0.32183 0.3179,0.35252 0.5022,0.77256 0.2197,0.50063 0.2963,0.71312 0.3486,0.96671 0.032,0.15676 0.031,0.18656 -0.015,0.237 -0.029,0.0317 -0.09,0.0671 -0.1356,0.0785 -0.046,0.0114 -0.147,0.0605 -0.2244,0.10897 -0.077,0.0485 -0.2673,0.15582 -0.422,0.23846 -0.1548,0.0826 -0.3236,0.18151 -0.3752,0.21971 -0.052,0.0382 -0.2205,0.13788 -0.3752,0.22151 -0.2688,0.14524 -0.564,0.3402 -1.3601,0.8982 -0.1977,0.13861 -0.526,0.33678 -0.7295,0.44037 -0.3535,0.17997 -0.6724,0.3891 -0.9432,0.61851 -0.069,0.0583 -0.252,0.16949 -0.4072,0.24713 -0.234,0.1171 -0.3219,0.14417 -0.5158,0.15875 -0.2076,0.0156 -0.2401,0.0105 -0.2905,-0.0458 z m -21.3915,-0.60332 c -0.1845,-0.0773 -0.3282,-0.34552 -0.4049,-0.75616 -0.082,-0.43961 -0.1378,-0.62262 -0.2841,-0.93558 -0.1935,-0.41381 -0.2386,-0.55636 -0.2564,-0.81145 -0.015,-0.22039 -0.015,-0.222 0.091,-0.31577 0.075,-0.0657 0.234,-0.1358 0.5274,-0.23165 0.4839,-0.15802 0.6178,-0.25925 0.6819,-0.51534 0.054,-0.21678 0.043,-0.64858 -0.024,-0.95715 -0.033,-0.15118 -0.084,-0.48012 -0.1124,-0.73096 -0.081,-0.70787 -0.1307,-0.97891 -0.1963,-1.06754 -0.059,-0.0793 -0.068,-0.0809 -0.6035,-0.10334 -0.2992,-0.0125 -1.1784,-0.0262 -1.9538,-0.0304 -1.5856,-0.009 -1.5144,-0.0185 -1.6395,0.22822 -0.035,0.0698 -0.099,0.30665 -0.1422,0.52639 -0.043,0.21975 -0.1072,0.50115 -0.1432,0.62534 -0.088,0.30375 -0.065,0.4144 0.1248,0.60544 0.114,0.11466 0.2029,0.1678 0.3965,0.23707 0.3627,0.12969 0.441,0.16958 0.5491,0.27972 0.2774,0.28274 0.285,0.56563 0.034,1.24864 -0.086,0.23449 -0.1796,0.54589 -0.2073,0.69198 -0.1362,0.71785 -0.2032,0.84753 -0.4379,0.84753 -0.041,0 -0.2438,-0.0637 -0.4506,-0.14155 -0.2069,-0.0778 -0.3915,-0.14154 -0.4103,-0.14154 -0.019,0 -0.3465,-0.10444 -0.7282,-0.23208 -0.3817,-0.12765 -0.7784,-0.24907 -0.8815,-0.26982 -0.2021,-0.0406 -1.0771,-0.29527 -2.1173,-0.61613 -0.3563,-0.1099 -0.701,-0.20879 -0.766,-0.21975 -0.2895,-0.0488 -0.5042,-0.1432 -0.6206,-0.27282 -0.1114,-0.12405 -0.1146,-0.13441 -0.096,-0.30475 0.01,-0.097 0.07,-0.31079 0.1318,-0.47514 0.062,-0.16435 0.1872,-0.58208 0.2784,-0.9283 0.3034,-1.15253 0.275,-1.13159 1.131,-0.833 0.8308,0.28978 0.9568,0.27388 1.1758,-0.14851 0.1598,-0.3081 0.202,-0.45595 0.3071,-1.07485 0.052,-0.30464 0.156,-0.82283 0.2318,-1.15152 0.076,-0.3287 0.1681,-0.78163 0.2051,-1.00653 0.068,-0.41555 0.1574,-0.78786 0.3575,-1.49405 0.061,-0.21625 0.1343,-0.51349 0.1622,-0.66054 0.095,-0.49857 0.5811,-2.72324 0.6636,-3.03529 0.032,-0.1211 0.089,-0.30432 0.1269,-0.40716 0.052,-0.14048 0.074,-0.29383 0.091,-0.61664 0.025,-0.47548 0.053,-0.55607 0.2312,-0.64613 0.056,-0.0283 0.2561,-0.14073 0.4452,-0.24997 0.1892,-0.10923 0.5128,-0.26616 0.7191,-0.34873 0.2064,-0.0826 0.5863,-0.26079 0.8442,-0.39604 0.2579,-0.13525 0.7715,-0.39904 1.1412,-0.5862 0.3697,-0.18716 0.7988,-0.41203 0.9536,-0.4997 0.1548,-0.0877 0.5487,-0.29113 0.8754,-0.45212 0.3268,-0.16099 0.6828,-0.36051 0.7914,-0.44337 0.1085,-0.0829 0.2101,-0.15065 0.2259,-0.15065 0.052,0 0.1205,0.13946 0.1689,0.34614 0.031,0.13225 0.048,0.36127 0.048,0.6494 4e-4,0.38751 0.016,0.52792 0.1235,1.08516 0.2167,1.12703 0.3269,1.85655 0.4222,2.79464 0.05,0.49115 0.1418,1.09429 0.2396,1.57246 0.034,0.16422 0.096,0.52516 0.138,0.80208 0.042,0.27692 0.1051,0.68501 0.1395,0.90688 0.034,0.22186 0.098,0.67479 0.1417,1.00652 0.044,0.33172 0.1,0.71637 0.1247,0.85477 0.048,0.26258 0.1155,0.76438 0.1722,1.27388 0.018,0.16435 0.074,0.53236 0.1249,0.8178 0.1285,0.72788 0.2187,1.48842 0.2192,1.84847 5e-4,0.34832 0.017,0.43545 0.086,0.4621 0.027,0.0103 0.1755,-0.0187 0.3305,-0.0646 0.3392,-0.10041 0.5258,-0.0926 0.8496,0.0358 0.4495,0.17808 0.563,0.35275 0.6227,0.95802 0.035,0.35805 0.1986,0.71828 0.3799,0.83779 0.082,0.0539 0.086,0.0535 0.1397,-0.0135 0.031,-0.038 0.065,-0.14339 0.077,-0.23432 0.074,-0.5612 0.238,-1.07268 0.3547,-1.10548 0.1697,-0.0477 0.2815,-0.0458 0.6612,0.0113 0.5741,0.0863 0.7235,0.0842 0.8346,-0.012 l 0.088,-0.0759 0.025,-4.13106 c 0.025,-4.12822 0.018,-5.00295 -0.039,-5.35776 -0.041,-0.25179 -0.1296,-0.33106 -0.491,-0.43837 -0.3976,-0.11805 -0.6668,-0.24116 -0.7382,-0.33764 -0.053,-0.0711 -0.062,-0.13168 -0.06,-0.39317 0,-0.41175 -0.05,-1.13608 -0.1026,-1.41371 -0.023,-0.12312 -0.052,-0.32455 -0.064,-0.44763 -0.04,-0.40935 0.033,-0.4447 0.9169,-0.44496 0.3818,-1.3e-4 0.8113,-0.0227 1.1725,-0.0617 0.8418,-0.0909 2.0973,-0.21576 2.3833,-0.23702 0.3115,-0.0232 0.8529,-0.0929 1.2308,-0.15848 0.1581,-0.0274 0.3398,-0.0455 0.4037,-0.0402 0.1161,0.01 0.1163,0.01 0.1133,0.15124 0,0.0779 -0.022,0.36293 -0.045,0.63351 -0.038,0.44394 -0.037,0.52223 0.011,0.80207 0.062,0.35996 0.064,0.56302 0.01,0.89596 -0.05,0.30451 -0.1075,0.39136 -0.3275,0.49091 -0.1549,0.0701 -0.2367,0.0828 -0.6498,0.10081 -0.4861,0.0212 -0.5001,0.0249 -0.6904,0.18135 -0.038,0.0311 -0.085,0.099 -0.1044,0.15087 -0.05,0.1319 -0.076,5.02594 -0.032,5.89759 0.018,0.35465 0.049,0.96328 0.07,1.35252 0.02,0.38924 0.038,1.18188 0.039,1.76142 0,0.94773 0.01,1.06401 0.058,1.15622 0.068,0.12539 0.3551,0.35782 0.5794,0.46913 0.1615,0.0802 0.1776,0.0819 0.594,0.0643 0.6813,-0.0288 0.7408,0.033 0.5687,0.59071 -0.1483,0.48022 -0.1881,0.71316 -0.1852,1.08241 0,0.26717 -0.011,0.38013 -0.064,0.53989 -0.037,0.11111 -0.078,0.3064 -0.09,0.43396 -0.017,0.17248 -0.038,0.24303 -0.082,0.27522 -0.078,0.0571 -0.1065,0.055 -0.2762,-0.0206 -0.1136,-0.0505 -0.256,-0.0702 -0.684,-0.0944 -0.7536,-0.0426 -1.8848,-0.1229 -2.2758,-0.16154 -0.1805,-0.0178 -0.8699,-0.0379 -1.532,-0.0446 -0.662,-0.007 -1.2344,-0.0195 -1.272,-0.0284 -0.041,-0.01 -0.1409,-0.12156 -0.2473,-0.2757 -0.2159,-0.31282 -0.3137,-0.4237 -0.4254,-0.48241 -0.106,-0.0557 -0.3374,-0.0563 -0.5409,-10e-4 -0.1863,0.0502 -0.7785,0.28094 -1.235,0.48115 -0.1806,0.0792 -0.5745,0.23284 -0.8754,0.34144 -0.301,0.1086 -0.5997,0.22025 -0.6639,0.24811 -0.064,0.0279 -0.3175,0.0993 -0.5628,0.15883 -0.5423,0.13151 -0.6273,0.16575 -0.9484,0.38203 -0.265,0.17841 -0.2733,0.18151 -0.3731,0.1397 z m -0.7847,-9.26111 c 0.1646,-0.0692 0.2064,-0.15615 0.2055,-0.42708 -5e-4,-0.13023 -0.014,-0.36416 -0.03,-0.51986 -0.016,-0.15569 -0.051,-0.50247 -0.079,-0.77062 -0.027,-0.26814 -0.077,-0.67154 -0.1095,-0.89643 -0.063,-0.43217 -0.1099,-0.8428 -0.1428,-1.25815 -0.041,-0.52059 -0.1578,-0.94259 -0.2874,-1.04157 -0.1294,-0.0988 -0.6514,0.0135 -0.9508,0.20462 -0.1423,0.0908 -0.3635,0.34082 -0.446,0.50403 -0.049,0.0966 -0.1835,0.63378 -0.253,1.00917 -0.027,0.14705 -0.091,0.43721 -0.1414,0.64481 -0.05,0.20759 -0.114,0.55437 -0.141,0.77062 -0.027,0.21624 -0.069,0.54179 -0.093,0.72344 -0.083,0.6231 -0.048,0.95257 0.1087,1.03706 0.05,0.0268 0.1417,0.0254 0.3701,-0.005 0.3805,-0.0513 0.9808,-0.0446 1.4294,0.0159 0.4484,0.0605 0.4385,0.0603 0.5597,0.009 z m 33.7188,9.24498 c -0.1494,-0.0246 -0.4634,-0.11664 -0.7035,-0.20624 -0.2384,-0.089 -0.5205,-0.18928 -0.6268,-0.22283 -0.2827,-0.0893 -0.9554,-0.54425 -1.4627,-0.98932 -0.1337,-0.11735 -0.3691,-0.35597 -0.5231,-0.53026 -0.2457,-0.2782 -0.3079,-0.37459 -0.5093,-0.78936 -0.6371,-1.31238 -0.7251,-1.54463 -0.9061,-2.38984 -0.1782,-0.83279 -0.2355,-1.51819 -0.2355,-2.81768 0,-1.16017 0.027,-1.58046 0.1283,-2.01048 0.035,-0.14705 0.103,-0.4726 0.1519,-0.72344 0.096,-0.49426 0.2336,-0.88437 0.5644,-1.60415 0.1073,-0.23354 0.2357,-0.53528 0.2854,-0.67052 0.1625,-0.44274 0.3702,-0.78771 0.8083,-1.34252 0.5184,-0.6564 0.9539,-1.05859 1.5009,-1.38593 0.4108,-0.2459 0.5478,-0.30635 1.0174,-0.44918 0.9719,-0.29562 2.4841,-0.26963 3.5161,0.0604 0.2423,0.0775 1.0732,0.52227 1.3558,0.72577 0.7752,0.55826 1.5314,1.64697 2.0175,2.90468 0.2441,0.63184 0.3052,0.88222 0.5362,2.19983 0.1225,0.6988 0.1237,0.71356 0.1228,1.49406 0,1.93722 -0.1196,2.89336 -0.4511,3.68023 -0.059,0.1394 -0.1787,0.44453 -0.2666,0.67807 -0.088,0.23354 -0.1903,0.50248 -0.2275,0.59762 -0.09,0.2295 -0.6235,1.037 -0.9477,1.43428 -0.2651,0.32479 -1.0162,1.06272 -1.3004,1.27753 -0.4156,0.31415 -0.9792,0.62471 -1.2455,0.68622 -0.094,0.0219 -0.3197,0.0873 -0.5002,0.1454 -0.3815,0.12278 -1.1428,0.25996 -1.5477,0.27888 -0.161,0.008 -0.3968,-0.006 -0.5513,-0.0312 z m 1.3017,-3.07036 c 0.505,-0.0846 0.9921,-0.33809 1.2734,-0.66259 0.091,-0.10457 0.2512,-0.28725 0.3569,-0.40597 0.1056,-0.11872 0.2205,-0.27656 0.2554,-0.35076 0.3674,-0.78106 0.5931,-1.3276 0.8608,-2.08504 0.2048,-0.57963 0.2411,-0.77228 0.2609,-1.38632 0.029,-0.90731 -0.092,-1.55773 -0.6103,-3.28458 -0.1645,-0.54735 -0.5062,-1.24659 -0.7169,-1.46679 -0.081,-0.0852 -0.2607,-0.22437 -0.3983,-0.30931 -0.5373,-0.33173 -0.6837,-0.37786 -1.3444,-0.42347 -0.6297,-0.0435 -0.9012,0.0292 -1.4945,0.40022 -0.4575,0.28606 -0.6905,0.57109 -0.9484,1.16027 -0.054,0.12425 -0.2049,0.44272 -0.3345,0.70771 -0.191,0.39064 -0.2475,0.54133 -0.2986,0.79635 -0.3677,1.83568 -0.4023,2.60493 -0.1764,3.93173 0.041,0.2422 0.084,0.54651 0.095,0.67626 0.011,0.12975 0.039,0.30776 0.064,0.39558 0.055,0.19729 0.291,0.71062 0.4021,0.87287 0.045,0.0662 0.1193,0.1936 0.1643,0.28309 0.1082,0.21523 0.4922,0.75467 0.6054,0.85048 0.1287,0.10898 0.7728,0.30678 1.0935,0.33582 0.2886,0.0261 0.5964,0.0138 0.8911,-0.0356 z m -0.6878,-1.48457 c -0.081,-0.0492 -0.462,-0.4559 -0.6538,-0.69699 -0.4284,-0.53853 -0.6193,-1.37011 -0.6215,-2.70677 0,-0.76118 0.029,-1.00279 0.2109,-1.67053 0.1097,-0.40323 0.1881,-0.61342 0.3606,-0.96666 0.2531,-0.51827 0.4926,-0.88433 0.6725,-1.0281 0.1779,-0.14215 0.5286,-0.31363 0.6414,-0.31363 0.3825,0 0.8038,0.59343 1.173,1.65233 0.2397,0.68724 0.3155,1.06284 0.3556,1.76042 0.043,0.7401 0.01,1.04691 -0.162,1.50978 -0.2321,0.62629 -0.6424,1.42713 -0.946,1.84664 -0.1324,0.18306 -0.4387,0.43342 -0.684,0.5592 -0.2022,0.1037 -0.2529,0.11163 -0.3467,0.0543 z m 67.1271,4.5433 c -0.2532,-0.0905 -0.9446,-0.56644 -1.1602,-0.79864 -0.2294,-0.24694 -0.331,-0.47325 -0.5153,-1.14715 -0.2439,-0.89134 -0.2959,-1.58155 -0.1994,-2.64306 0.052,-0.56825 0.1157,-0.92678 0.2658,-1.49001 0.053,-0.19713 0.1309,-0.5495 0.174,-0.78304 0.2987,-1.61645 0.4016,-2.04857 0.6667,-2.7994 0.1008,-0.28544 0.2637,-0.77376 0.3619,-1.08516 0.2003,-0.63458 0.3818,-1.04579 0.6852,-1.55241 0.5411,-0.90349 0.8273,-1.1998 1.159,-1.1998 0.1975,0 0.5349,0.0878 0.9072,0.23613 0.1548,0.0616 0.4438,0.15307 0.6423,0.20316 0.608,0.15343 1.0423,0.34347 1.1453,0.50117 0.042,0.0639 0.059,0.19178 0.077,0.58505 0.028,0.61572 0.079,0.98964 0.277,2.0445 0.084,0.44979 0.1842,0.99473 0.2215,1.21098 0.037,0.21624 0.094,0.46394 0.1268,0.55044 0.076,0.20361 0.3427,0.56538 0.462,0.62747 0.051,0.0267 0.2945,0.0919 0.5406,0.14493 0.4204,0.0907 0.4804,0.0958 0.9945,0.0859 l 0.5472,-0.0106 0.6184,-0.25857 c 0.4691,-0.19618 0.6954,-0.27296 0.9379,-0.3182 0.7547,-0.14079 1.2253,-0.22489 1.6797,-0.30019 1.2448,-0.20629 1.6713,-0.29958 2.2667,-0.49589 0.7174,-0.2365 0.908,-0.25668 0.9819,-0.10394 0.065,0.13503 0.061,0.65249 -0.01,1.05371 -0.054,0.30635 -0.055,0.38575 -0.019,1.09668 0.025,0.49061 0.031,1.03393 0.017,1.50979 -0.018,0.59535 -0.012,0.81226 0.026,1.08936 0.1097,0.78269 0.099,1.32489 -0.032,1.65558 -0.056,0.14093 -0.1021,0.14394 -0.1459,0.01 -0.041,-0.12508 -0.1013,-0.20055 -0.4367,-0.54384 -0.3936,-0.40283 -0.5788,-0.52773 -1.2615,-0.85105 -0.3241,-0.15347 -0.6807,-0.3326 -0.7925,-0.39807 -0.3167,-0.18553 -0.8313,-0.45491 -1.1897,-0.62278 -0.6223,-0.2915 -0.7027,-0.332 -0.8894,-0.44767 -0.4992,-0.30926 -0.8497,-0.49149 -1.1959,-0.62178 -0.4823,-0.18148 -0.6191,-0.25223 -0.9458,-0.48922 -0.3682,-0.26705 -0.5833,-0.36685 -1.0005,-0.46437 -0.3137,-0.0733 -0.4294,-0.0843 -0.9067,-0.0863 -0.6171,-0.003 -0.7159,0.0228 -0.9627,0.24716 -0.2495,0.22675 -0.7316,1.10698 -1.1986,2.18823 -0.041,0.0952 -0.1824,0.37855 -0.3141,0.62979 -0.2988,0.57023 -0.344,0.73697 -0.3497,1.29029 v 0.42602 l 0.1118,0.21878 c 0.061,0.12033 0.1706,0.32924 0.2424,0.46424 0.072,0.13501 0.1304,0.28382 0.1304,0.33069 0,0.10939 -0.1944,0.40065 -0.3179,0.47618 -0.052,0.032 -0.2168,0.0886 -0.3654,0.12574 -0.1488,0.0372 -0.4628,0.15871 -0.6986,0.27039 -0.6279,0.29736 -1.005,0.36401 -1.3538,0.23929 z m 59.7333,-1.88433 c -0.7077,-0.79547 -0.8608,-1.16284 -0.9731,-2.33545 -0.044,-0.45796 -0.059,-3.68598 -0.018,-3.84466 0.035,-0.13475 0.1628,-0.18143 0.4974,-0.18143 0.3901,0 0.7442,0.0465 1.1966,0.15696 0.4936,0.12056 0.6375,0.17402 0.7449,0.27675 0.1989,0.19011 0.2003,0.20108 0.2589,2.11405 0.031,1.01143 -0.068,1.80423 -0.3334,2.67728 -0.1566,0.51449 -0.2554,0.74039 -0.4266,0.97571 -0.1515,0.20819 -0.2056,0.24313 -0.4626,0.2988 -0.2948,0.0639 -0.308,0.0601 -0.4842,-0.13801 z m -25.2005,0.10157 c -0.1977,-0.0218 -0.3615,-0.0411 -0.364,-0.0431 -0.034,-0.0268 -0.1138,-0.31337 -0.1354,-0.48691 -0.015,-0.12335 -0.043,-1.47693 -0.062,-3.00795 -0.019,-1.53101 -0.048,-3.0937 -0.065,-3.47263 -0.028,-0.61186 -0.026,-0.69511 0.018,-0.74378 0.065,-0.0721 0.2783,-0.12422 0.5091,-0.12422 0.1648,0 0.207,0.0143 0.3735,0.12612 0.1173,0.0788 0.2071,0.16709 0.2393,0.23534 0.1044,0.22145 0.1668,0.88789 0.1912,2.04476 0.013,0.60549 0.028,1.21412 0.034,1.35252 0.084,2.06812 0.096,3.07708 0.042,3.55193 -0.035,0.30995 -0.1154,0.52924 -0.2126,0.58156 -0.073,0.0394 -0.088,0.0391 -0.5678,-0.0137 z m -7.922,-0.12641 c -0.011,-0.0281 -0.019,-0.12889 -0.019,-0.224 0,-0.0951 -0.014,-0.30273 -0.03,-0.46138 -0.09,-0.86278 -0.096,-1.06895 -0.051,-1.75105 0.051,-0.76058 0.089,-2.36071 0.096,-4.02609 0,-0.61414 0.016,-1.15554 0.029,-1.20311 0.035,-0.12182 0.1,-0.10748 0.1736,0.0383 0.094,0.18598 0.1093,0.19049 0.8422,0.25243 0.1963,0.0166 0.4249,0.0529 0.508,0.0806 l 0.1511,0.0505 -4e-4,0.1626 c -3e-4,0.0894 0.01,1.4648 0.013,3.05636 0.013,2.79538 0.016,2.90285 0.078,3.16112 0.074,0.30493 0.082,0.44277 0.028,0.49697 -0.059,0.0591 -0.2012,0.0446 -0.3622,-0.037 -0.3112,-0.15767 -1.0412,-0.2574 -1.2165,-0.1662 -0.1136,0.0591 -0.1422,0.12037 -0.1181,0.253 0.035,0.19401 -0.067,0.4605 -0.1221,0.31693 z m -6.7469,-0.21772 c -0.265,-0.15171 -0.4003,-1.04913 -0.1997,-1.32502 0.041,-0.056 0.054,-0.0543 0.3398,0.043 0.1636,0.0557 0.3224,0.10125 0.3529,0.10125 0.1224,0 0.3263,0.13454 0.44,0.29035 0.098,0.13381 0.1169,0.18596 0.1182,0.32006 0,0.20957 -0.1356,0.44808 -0.308,0.53393 -0.1629,0.0811 -0.6256,0.10371 -0.7432,0.0364 z M 3108.7812,432.58 c -0.056,-0.10443 -0.014,-0.49605 0.1237,-1.15802 0.2071,-0.99748 0.3518,-1.64941 0.3769,-1.69851 0.056,-0.11023 0.1935,-0.13727 0.7062,-0.13914 0.5289,-0.002 0.5192,-0.003 1.541,0.2325 0.2272,0.0525 0.5985,0.13818 0.8252,0.19052 0.6285,0.14511 0.781,0.26483 0.6326,0.49664 -0.133,0.20784 -0.4427,0.51869 -0.6935,0.69598 -0.1502,0.10621 -0.3434,0.24936 -0.4294,0.31811 -0.1918,0.15336 -1.2086,0.66472 -1.5039,0.75631 -0.1187,0.0368 -0.3494,0.12102 -0.5127,0.18719 -0.1933,0.0783 -0.3896,0.13198 -0.562,0.15371 -0.3935,0.0496 -0.4615,0.0448 -0.5041,-0.0353 z m 33.4241,-2.0045 c -0.1615,-0.0516 -0.2243,-0.10567 -0.2862,-0.24637 -0.06,-0.13579 -0.062,-0.18277 -0.041,-0.8387 0.013,-0.42205 0.01,-0.89243 -0.012,-1.19811 -0.1095,-1.61755 -0.1623,-4.33738 -0.096,-4.93825 0.028,-0.25519 0.041,-0.29161 0.1253,-0.36959 0.076,-0.0701 0.1235,-0.0865 0.2498,-0.0865 0.1354,0 0.1723,0.0151 0.2825,0.11525 0.1783,0.16205 0.3612,0.48798 0.439,0.78225 0.063,0.23922 0.067,0.33392 0.076,2.09274 0.01,1.51356 0.02,1.92315 0.065,2.29613 0.03,0.24968 0.056,0.65211 0.057,0.89431 0,0.50301 -0.026,0.62114 -0.249,1.03798 -0.2106,0.39308 -0.3912,0.52883 -0.6102,0.45885 z m 12.6922,-1.55098 c -0.2579,-0.1308 -0.5968,-0.47329 -0.8968,-0.9063 -0.1255,-0.18104 -0.3262,-0.4707 -0.4462,-0.6437 -0.1199,-0.17299 -0.33,-0.46907 -0.4668,-0.65795 -0.396,-0.54643 -0.4047,-0.66676 -0.071,-0.97592 0.1132,-0.10475 0.3204,-0.29859 0.4605,-0.43076 0.225,-0.21223 0.2753,-0.2446 0.4304,-0.277 0.2644,-0.0552 0.5861,0.0174 1.1805,0.26662 0.1808,0.0758 0.2602,0.0878 0.7191,0.10903 0.3466,0.016 0.5537,0.0397 0.6309,0.0723 0.1036,0.0437 0.1172,0.0635 0.1377,0.20046 0.013,0.0836 0.01,0.49168 -0.014,0.90687 -0.02,0.41519 -0.036,1.02559 -0.036,1.35644 5e-4,0.80576 0.01,0.77253 -0.2451,0.87102 -0.4211,0.16267 -0.6269,0.21021 -0.9103,0.21021 -0.2461,0 -0.2938,-0.0102 -0.4735,-0.10133 z m 95.3325,-2.2045 c -0.1638,-0.0563 -0.313,-0.30091 -0.313,-0.51295 0,-0.20965 0.063,-0.35554 0.2079,-0.48385 0.2131,-0.18823 0.355,-0.23105 0.8139,-0.24568 l 0.4121,-0.0131 0.084,0.0842 c 0.077,0.0778 0.083,0.10024 0.071,0.29452 -0.01,0.1767 -0.031,0.23881 -0.1265,0.38868 -0.1292,0.20186 -0.2757,0.30211 -0.6061,0.41482 -0.296,0.10099 -0.4159,0.11719 -0.5434,0.0734 z"
       id="path932" />
  </g>
</svg>
